<mxfile host="app.diagrams.net" modified="2022-09-12T17:39:28.182Z" agent="5.0 (Windows NT 10.0; Win64; x64) AppleWebKit/537.36 (KHTML, like Gecko) Chrome/105.0.0.0 Safari/537.36" etag="9BJD-BKuEXyMK9dwT8LQ" version="20.3.0" type="github">
  <diagram id="6a731a19-8d31-9384-78a2-239565b7b9f0" name="Page-1">
    <mxGraphModel dx="2966" dy="1589" grid="1" gridSize="10" guides="1" tooltips="1" connect="1" arrows="1" fold="1" page="1" pageScale="1" pageWidth="1654" pageHeight="1169" background="none" math="0" shadow="0">
      <root>
        <mxCell id="0" />
        <mxCell id="1" parent="0" />
        <mxCell id="1745" value="" style="edgeStyle=none;rounded=0;jumpStyle=none;html=1;shadow=0;labelBackgroundColor=none;startArrow=none;startFill=0;endArrow=classic;endFill=1;jettySize=auto;orthogonalLoop=1;strokeColor=#2F5B7C;strokeWidth=3;fontFamily=Helvetica;fontSize=16;fontColor=#23445D;spacing=5;" parent="1" source="1749" target="1764" edge="1">
          <mxGeometry relative="1" as="geometry" />
        </mxCell>
        <mxCell id="1746" value="" style="edgeStyle=none;rounded=0;jumpStyle=none;html=1;shadow=0;labelBackgroundColor=none;startArrow=none;startFill=0;endArrow=classic;endFill=1;jettySize=auto;orthogonalLoop=1;strokeColor=#2F5B7C;strokeWidth=3;fontFamily=Helvetica;fontSize=16;fontColor=#23445D;spacing=5;" parent="1" source="1749" target="1771" edge="1">
          <mxGeometry relative="1" as="geometry" />
        </mxCell>
        <mxCell id="1747" value="" style="edgeStyle=none;rounded=0;jumpStyle=none;html=1;shadow=0;labelBackgroundColor=none;startArrow=none;startFill=0;endArrow=classic;endFill=1;jettySize=auto;orthogonalLoop=1;strokeColor=#2F5B7C;strokeWidth=3;fontFamily=Helvetica;fontSize=16;fontColor=#23445D;spacing=5;" parent="1" source="1749" target="1760" edge="1">
          <mxGeometry relative="1" as="geometry" />
        </mxCell>
        <mxCell id="1748" value="" style="edgeStyle=none;rounded=0;jumpStyle=none;html=1;shadow=0;labelBackgroundColor=none;startArrow=none;startFill=0;endArrow=classic;endFill=1;jettySize=auto;orthogonalLoop=1;strokeColor=#2F5B7C;strokeWidth=3;fontFamily=Helvetica;fontSize=16;fontColor=#23445D;spacing=5;" parent="1" source="1749" target="1753" edge="1">
          <mxGeometry relative="1" as="geometry" />
        </mxCell>
        <mxCell id="1749" value="&lt;h1 style=&quot;margin-bottom: 0cm; text-indent: 35.45pt; font-size: 18px;&quot;&gt;&lt;font face=&quot;Verdana&quot;&gt;&lt;span style=&quot;text-indent: 35.45pt; background-color: initial;&quot;&gt;Потреба у&amp;nbsp;&lt;/span&gt;&lt;span style=&quot;text-indent: 35.45pt; background-color: initial;&quot;&gt;підтриманні&amp;nbsp;&lt;/span&gt;&lt;span style=&quot;text-indent: 35.45pt; background-color: initial;&quot;&gt;температури навколишнього середовища для стану фізичного здоров’я,&amp;nbsp;&lt;/span&gt;&lt;span style=&quot;text-indent: 35.45pt; background-color: initial;&quot;&gt;щоб отримувати інформацію і трансформувати її у співи.&lt;/span&gt;&lt;/font&gt;&lt;br&gt;&lt;/h1&gt;" style="rounded=1;whiteSpace=wrap;html=1;shadow=0;labelBackgroundColor=none;strokeColor=none;strokeWidth=3;fillColor=#2F5B7C;fontFamily=Helvetica;fontSize=16;fontColor=#FFFFFF;align=center;fontStyle=1;spacing=5;arcSize=7;perimeterSpacing=2;" parent="1" vertex="1">
          <mxGeometry x="660" y="480" width="380" height="160" as="geometry" />
        </mxCell>
        <mxCell id="1753" value="&lt;span lang=&quot;UK&quot;&gt;&lt;font style=&quot;font-size: 16px;&quot;&gt;Стан фізичного здоров&#39;я&lt;/font&gt;&lt;/span&gt;" style="rounded=1;whiteSpace=wrap;html=1;shadow=0;labelBackgroundColor=none;strokeColor=none;strokeWidth=3;fillColor=#e85642;fontFamily=Helvetica;fontSize=14;fontColor=#FFFFFF;align=center;spacing=5;fontStyle=1;arcSize=7;perimeterSpacing=2;" parent="1" vertex="1">
          <mxGeometry x="432" y="520" width="148" height="79" as="geometry" />
        </mxCell>
        <mxCell id="1760" value="&lt;span lang=&quot;UK&quot;&gt;&lt;font style=&quot;font-size: 17px;&quot;&gt;Співи&lt;/font&gt;&lt;/span&gt;" style="rounded=1;whiteSpace=wrap;html=1;shadow=0;labelBackgroundColor=none;strokeColor=none;strokeWidth=3;fillColor=#1699d3;fontFamily=Helvetica;fontSize=14;fontColor=#FFFFFF;align=center;spacing=5;fontStyle=1;arcSize=7;perimeterSpacing=2;" parent="1" vertex="1">
          <mxGeometry x="770" y="676" width="160" height="74" as="geometry" />
        </mxCell>
        <mxCell id="1764" value="&lt;span lang=&quot;UK&quot;&gt;&lt;font style=&quot;font-size: 16px;&quot;&gt;Температура навколишнього середовища&lt;/font&gt;&lt;/span&gt;" style="rounded=1;whiteSpace=wrap;html=1;shadow=0;labelBackgroundColor=none;strokeColor=none;strokeWidth=3;fillColor=#F08705;fontFamily=Helvetica;fontSize=14;fontColor=#FFFFFF;align=center;spacing=5;fontStyle=1;arcSize=7;perimeterSpacing=2;" parent="1" vertex="1">
          <mxGeometry x="769" y="360.5" width="160" height="73" as="geometry" />
        </mxCell>
        <mxCell id="1771" value="&lt;span lang=&quot;UK&quot;&gt;&lt;font style=&quot;font-size: 16px;&quot;&gt;Отримання інформації&lt;/font&gt;&lt;/span&gt;" style="rounded=1;whiteSpace=wrap;html=1;shadow=0;labelBackgroundColor=none;strokeColor=none;strokeWidth=3;fillColor=#12aab5;fontFamily=Helvetica;fontSize=14;fontColor=#FFFFFF;align=center;spacing=5;fontStyle=1;arcSize=7;perimeterSpacing=2;" parent="1" vertex="1">
          <mxGeometry x="1140" y="520" width="147" height="80" as="geometry" />
        </mxCell>
        <mxCell id="1772" value="Як?" style="rounded=1;whiteSpace=wrap;html=1;shadow=0;labelBackgroundColor=none;strokeColor=none;strokeWidth=3;fillColor=#61c6ce;fontFamily=Helvetica;fontSize=14;fontColor=#FFFFFF;align=center;spacing=5;fontStyle=0;arcSize=7;perimeterSpacing=2;" parent="1" vertex="1">
          <mxGeometry x="1317" y="791" width="69" height="60" as="geometry" />
        </mxCell>
        <mxCell id="1773" value="" style="edgeStyle=none;rounded=1;jumpStyle=none;html=1;shadow=0;labelBackgroundColor=none;startArrow=none;startFill=0;jettySize=auto;orthogonalLoop=1;strokeColor=#12AAB5;strokeWidth=3;fontFamily=Helvetica;fontSize=14;fontColor=#FFFFFF;spacing=5;fontStyle=1;fillColor=#b0e3e6;exitX=0.5;exitY=1;exitDx=0;exitDy=0;" parent="1" source="1771" target="1772" edge="1">
          <mxGeometry relative="1" as="geometry">
            <mxPoint x="1289" y="635" as="targetPoint" />
          </mxGeometry>
        </mxCell>
        <mxCell id="1774" value="Коли?" style="rounded=1;whiteSpace=wrap;html=1;shadow=0;labelBackgroundColor=none;strokeColor=none;strokeWidth=3;fillColor=#61c6ce;fontFamily=Helvetica;fontSize=14;fontColor=#FFFFFF;align=center;spacing=5;fontStyle=0;arcSize=7;perimeterSpacing=2;direction=south;" parent="1" vertex="1">
          <mxGeometry x="1327.75" y="620.75" width="65.5" height="60.25" as="geometry" />
        </mxCell>
        <mxCell id="1775" value="" style="edgeStyle=none;rounded=1;jumpStyle=none;html=1;shadow=0;labelBackgroundColor=none;startArrow=none;startFill=0;jettySize=auto;orthogonalLoop=1;strokeColor=#12AAB5;strokeWidth=3;fontFamily=Helvetica;fontSize=14;fontColor=#FFFFFF;spacing=5;fontStyle=1;fillColor=#b0e3e6;exitX=1;exitY=1;exitDx=0;exitDy=0;" parent="1" source="1771" target="1774" edge="1">
          <mxGeometry relative="1" as="geometry" />
        </mxCell>
        <mxCell id="1776" value="Де?" style="rounded=1;whiteSpace=wrap;html=1;shadow=0;labelBackgroundColor=none;strokeColor=none;strokeWidth=3;fillColor=#61c6ce;fontFamily=Helvetica;fontSize=14;fontColor=#FFFFFF;align=center;spacing=5;fontStyle=0;arcSize=7;perimeterSpacing=2;" parent="1" vertex="1">
          <mxGeometry x="1326" y="411" width="69" height="52" as="geometry" />
        </mxCell>
        <mxCell id="1777" value="" style="edgeStyle=none;rounded=1;jumpStyle=none;html=1;shadow=0;labelBackgroundColor=none;startArrow=none;startFill=0;jettySize=auto;orthogonalLoop=1;strokeColor=#12AAB5;strokeWidth=3;fontFamily=Helvetica;fontSize=14;fontColor=#FFFFFF;spacing=5;fontStyle=1;fillColor=#b0e3e6;" parent="1" target="1776" edge="1">
          <mxGeometry relative="1" as="geometry">
            <mxPoint x="1280" y="530" as="sourcePoint" />
          </mxGeometry>
        </mxCell>
        <mxCell id="1778" value="Що?" style="rounded=1;whiteSpace=wrap;html=1;shadow=0;labelBackgroundColor=none;strokeColor=none;strokeWidth=3;fillColor=#61c6ce;fontFamily=Helvetica;fontSize=14;fontColor=#FFFFFF;align=center;spacing=5;fontStyle=0;arcSize=7;perimeterSpacing=2;" parent="1" vertex="1">
          <mxGeometry x="1313" y="280" width="73" height="60" as="geometry" />
        </mxCell>
        <mxCell id="1779" value="" style="edgeStyle=none;rounded=1;jumpStyle=none;html=1;shadow=0;labelBackgroundColor=none;startArrow=none;startFill=0;jettySize=auto;orthogonalLoop=1;strokeColor=#12AAB5;strokeWidth=3;fontFamily=Helvetica;fontSize=14;fontColor=#FFFFFF;spacing=5;fontStyle=1;fillColor=#b0e3e6;exitX=0.5;exitY=0;exitDx=0;exitDy=0;" parent="1" source="1771" target="1778" edge="1">
          <mxGeometry relative="1" as="geometry">
            <mxPoint x="1223" y="507" as="sourcePoint" />
          </mxGeometry>
        </mxCell>
        <mxCell id="KxXHiPZeeXsI9hDlDG1h-1779" value="Приходить" style="rounded=1;whiteSpace=wrap;html=1;shadow=0;fillColor=#DEF5EB;fontFamily=Helvetica;fontSize=14;fontColor=#000000;align=center;spacing=5;fontStyle=0;arcSize=7;perimeterSpacing=2;" parent="1" vertex="1">
          <mxGeometry x="1429" y="158.5" width="82" height="60" as="geometry" />
        </mxCell>
        <mxCell id="KxXHiPZeeXsI9hDlDG1h-1780" value="Обробляється" style="rounded=1;whiteSpace=wrap;html=1;shadow=0;fillColor=#DEF5EB;fontFamily=Helvetica;fontSize=14;fontColor=#000000;align=center;spacing=5;fontStyle=0;arcSize=7;perimeterSpacing=2;" parent="1" vertex="1">
          <mxGeometry x="1525" y="160.5" width="106" height="60" as="geometry" />
        </mxCell>
        <mxCell id="KxXHiPZeeXsI9hDlDG1h-1781" value="Виходить" style="rounded=1;whiteSpace=wrap;html=1;shadow=0;fillColor=#DEF5EB;fontFamily=Helvetica;fontSize=14;fontColor=#000000;align=center;spacing=5;fontStyle=0;arcSize=7;perimeterSpacing=2;" parent="1" vertex="1">
          <mxGeometry x="1453" y="279" width="84" height="60" as="geometry" />
        </mxCell>
        <mxCell id="KxXHiPZeeXsI9hDlDG1h-1789" value="" style="edgeStyle=none;rounded=1;jumpStyle=none;html=1;shadow=0;labelBackgroundColor=none;startArrow=none;startFill=0;jettySize=auto;orthogonalLoop=1;strokeColor=#12AAB5;strokeWidth=3;fontFamily=Helvetica;fontSize=14;fontColor=#FFFFFF;spacing=5;fontStyle=1;fillColor=#b0e3e6;" parent="1" source="1778" target="KxXHiPZeeXsI9hDlDG1h-1779" edge="1">
          <mxGeometry relative="1" as="geometry">
            <mxPoint x="1475" y="310" as="sourcePoint" />
            <mxPoint x="1523" y="239.9999999999999" as="targetPoint" />
          </mxGeometry>
        </mxCell>
        <mxCell id="KxXHiPZeeXsI9hDlDG1h-1790" value="" style="edgeStyle=none;rounded=1;jumpStyle=none;html=1;shadow=0;labelBackgroundColor=none;startArrow=none;startFill=0;jettySize=auto;orthogonalLoop=1;strokeColor=#12AAB5;strokeWidth=3;fontFamily=Helvetica;fontSize=14;fontColor=#FFFFFF;spacing=5;fontStyle=1;fillColor=#b0e3e6;entryX=0.367;entryY=0.976;entryDx=0;entryDy=0;entryPerimeter=0;exitX=1;exitY=0.25;exitDx=0;exitDy=0;" parent="1" source="1778" target="KxXHiPZeeXsI9hDlDG1h-1780" edge="1">
          <mxGeometry relative="1" as="geometry">
            <mxPoint x="1536" y="313" as="sourcePoint" />
            <mxPoint x="1604.6925086139822" y="250.9999999999999" as="targetPoint" />
          </mxGeometry>
        </mxCell>
        <mxCell id="KxXHiPZeeXsI9hDlDG1h-1791" value="" style="edgeStyle=none;rounded=1;jumpStyle=none;html=1;shadow=0;labelBackgroundColor=none;startArrow=none;startFill=0;jettySize=auto;orthogonalLoop=1;strokeColor=#12AAB5;strokeWidth=3;fontFamily=Helvetica;fontSize=14;fontColor=#FFFFFF;spacing=5;fontStyle=1;fillColor=#b0e3e6;exitX=1;exitY=0.5;exitDx=0;exitDy=0;entryX=0;entryY=0.5;entryDx=0;entryDy=0;" parent="1" source="1778" target="KxXHiPZeeXsI9hDlDG1h-1781" edge="1">
          <mxGeometry relative="1" as="geometry">
            <mxPoint x="1159" y="386" as="sourcePoint" />
            <mxPoint x="1262" y="400.12345679012344" as="targetPoint" />
          </mxGeometry>
        </mxCell>
        <mxCell id="KxXHiPZeeXsI9hDlDG1h-1823" value="Коли?" style="rounded=1;whiteSpace=wrap;html=1;shadow=0;labelBackgroundColor=none;strokeColor=none;strokeWidth=3;fillColor=#f5af58;fontFamily=Helvetica;fontSize=14;fontColor=#FFFFFF;align=center;spacing=5;arcSize=7;perimeterSpacing=2;" parent="1" vertex="1">
          <mxGeometry x="874" y="270" width="75" height="60" as="geometry" />
        </mxCell>
        <mxCell id="KxXHiPZeeXsI9hDlDG1h-1824" value="" style="edgeStyle=none;rounded=0;jumpStyle=none;html=1;shadow=0;labelBackgroundColor=none;startArrow=none;startFill=0;endArrow=classic;endFill=1;jettySize=auto;orthogonalLoop=1;strokeColor=#F08705;strokeWidth=3;fontFamily=Helvetica;fontSize=14;fontColor=#FFFFFF;spacing=5;" parent="1" source="1764" target="KxXHiPZeeXsI9hDlDG1h-1823" edge="1">
          <mxGeometry relative="1" as="geometry">
            <mxPoint x="878" y="376" as="sourcePoint" />
          </mxGeometry>
        </mxCell>
        <mxCell id="KxXHiPZeeXsI9hDlDG1h-1825" value="Де?" style="rounded=1;whiteSpace=wrap;html=1;shadow=0;labelBackgroundColor=none;strokeColor=none;strokeWidth=3;fillColor=#f5af58;fontFamily=Helvetica;fontSize=14;fontColor=#FFFFFF;align=center;spacing=5;arcSize=7;perimeterSpacing=2;" parent="1" vertex="1">
          <mxGeometry x="713" y="270" width="80" height="60" as="geometry" />
        </mxCell>
        <mxCell id="KxXHiPZeeXsI9hDlDG1h-1826" value="" style="edgeStyle=none;rounded=0;jumpStyle=none;html=1;shadow=0;labelBackgroundColor=none;startArrow=none;startFill=0;endArrow=classic;endFill=1;jettySize=auto;orthogonalLoop=1;strokeColor=#F08705;strokeWidth=3;fontFamily=Helvetica;fontSize=14;fontColor=#FFFFFF;spacing=5;" parent="1" source="1764" target="KxXHiPZeeXsI9hDlDG1h-1825" edge="1">
          <mxGeometry relative="1" as="geometry">
            <mxPoint x="827.6031746031745" y="378.5" as="sourcePoint" />
          </mxGeometry>
        </mxCell>
        <mxCell id="KxXHiPZeeXsI9hDlDG1h-1827" value="Що?" style="rounded=1;whiteSpace=wrap;html=1;shadow=0;labelBackgroundColor=none;strokeColor=none;strokeWidth=3;fillColor=#f5af58;fontFamily=Helvetica;fontSize=14;fontColor=#FFFFFF;align=center;spacing=5;arcSize=7;perimeterSpacing=2;" parent="1" vertex="1">
          <mxGeometry x="489" y="368" width="80" height="60" as="geometry" />
        </mxCell>
        <mxCell id="KxXHiPZeeXsI9hDlDG1h-1828" value="" style="edgeStyle=none;rounded=0;jumpStyle=none;html=1;shadow=0;labelBackgroundColor=none;startArrow=none;startFill=0;endArrow=classic;endFill=1;jettySize=auto;orthogonalLoop=1;strokeColor=#F08705;strokeWidth=3;fontFamily=Helvetica;fontSize=14;fontColor=#FFFFFF;spacing=5;exitX=0;exitY=0.5;exitDx=0;exitDy=0;" parent="1" source="1764" target="KxXHiPZeeXsI9hDlDG1h-1827" edge="1">
          <mxGeometry relative="1" as="geometry">
            <mxPoint x="779" y="413" as="sourcePoint" />
          </mxGeometry>
        </mxCell>
        <mxCell id="KxXHiPZeeXsI9hDlDG1h-1829" value="Як?" style="rounded=1;whiteSpace=wrap;html=1;shadow=0;labelBackgroundColor=none;strokeColor=none;strokeWidth=3;fillColor=#f5af58;fontFamily=Helvetica;fontSize=14;fontColor=#FFFFFF;align=center;spacing=5;arcSize=7;perimeterSpacing=2;" parent="1" vertex="1">
          <mxGeometry x="1096" y="367" width="70" height="60" as="geometry" />
        </mxCell>
        <mxCell id="KxXHiPZeeXsI9hDlDG1h-1830" value="" style="edgeStyle=none;rounded=0;jumpStyle=none;html=1;shadow=0;labelBackgroundColor=none;startArrow=none;startFill=0;endArrow=classic;endFill=1;jettySize=auto;orthogonalLoop=1;strokeColor=#F08705;strokeWidth=3;fontFamily=Helvetica;fontSize=14;fontColor=#FFFFFF;spacing=5;entryX=0;entryY=0.5;entryDx=0;entryDy=0;exitX=1;exitY=0.5;exitDx=0;exitDy=0;" parent="1" source="1764" target="KxXHiPZeeXsI9hDlDG1h-1829" edge="1">
          <mxGeometry relative="1" as="geometry">
            <mxPoint x="905" y="436" as="sourcePoint" />
            <mxPoint x="959.301775147929" y="368" as="targetPoint" />
          </mxGeometry>
        </mxCell>
        <mxCell id="KxXHiPZeeXsI9hDlDG1h-1831" value="" style="edgeStyle=none;rounded=0;jumpStyle=none;html=1;shadow=0;labelBackgroundColor=none;startArrow=none;startFill=0;endArrow=classic;endFill=1;jettySize=auto;orthogonalLoop=1;strokeColor=#1699D3;strokeWidth=3;fontFamily=Helvetica;fontSize=14;fontColor=#FFFFFF;spacing=5;exitX=0;exitY=0.5;exitDx=0;exitDy=0;" parent="1" source="1760" target="KxXHiPZeeXsI9hDlDG1h-1832" edge="1">
          <mxGeometry relative="1" as="geometry">
            <mxPoint x="812.5" y="668" as="sourcePoint" />
          </mxGeometry>
        </mxCell>
        <mxCell id="KxXHiPZeeXsI9hDlDG1h-1832" value="Що?" style="rounded=1;whiteSpace=wrap;html=1;shadow=0;labelBackgroundColor=none;strokeColor=none;strokeWidth=3;fillColor=#64bbe2;fontFamily=Helvetica;fontSize=14;fontColor=#FFFFFF;align=center;spacing=5;arcSize=7;perimeterSpacing=2;" parent="1" vertex="1">
          <mxGeometry x="494" y="685" width="75" height="60" as="geometry" />
        </mxCell>
        <mxCell id="KxXHiPZeeXsI9hDlDG1h-1833" value="" style="edgeStyle=none;rounded=0;jumpStyle=none;html=1;shadow=0;labelBackgroundColor=none;startArrow=none;startFill=0;endArrow=classic;endFill=1;jettySize=auto;orthogonalLoop=1;strokeColor=#1699D3;strokeWidth=3;fontFamily=Helvetica;fontSize=14;fontColor=#FFFFFF;spacing=5;exitX=0.25;exitY=1;exitDx=0;exitDy=0;" parent="1" source="1760" target="KxXHiPZeeXsI9hDlDG1h-1834" edge="1">
          <mxGeometry relative="1" as="geometry">
            <mxPoint x="837.4994999999999" y="742.0160000000001" as="sourcePoint" />
          </mxGeometry>
        </mxCell>
        <mxCell id="KxXHiPZeeXsI9hDlDG1h-1834" value="Де?" style="rounded=1;whiteSpace=wrap;html=1;shadow=0;labelBackgroundColor=none;strokeColor=none;strokeWidth=3;fillColor=#64bbe2;fontFamily=Helvetica;fontSize=14;fontColor=#FFFFFF;align=center;spacing=5;arcSize=7;perimeterSpacing=2;" parent="1" vertex="1">
          <mxGeometry x="749.5" y="791" width="75" height="60" as="geometry" />
        </mxCell>
        <mxCell id="KxXHiPZeeXsI9hDlDG1h-1835" value="" style="edgeStyle=none;rounded=0;jumpStyle=none;html=1;shadow=0;labelBackgroundColor=none;startArrow=none;startFill=0;endArrow=classic;endFill=1;jettySize=auto;orthogonalLoop=1;strokeColor=#1699D3;strokeWidth=3;fontFamily=Helvetica;fontSize=14;fontColor=#FFFFFF;spacing=5;" parent="1" source="1760" target="KxXHiPZeeXsI9hDlDG1h-1836" edge="1">
          <mxGeometry relative="1" as="geometry">
            <mxPoint x="875.7608695652175" y="744" as="sourcePoint" />
          </mxGeometry>
        </mxCell>
        <mxCell id="KxXHiPZeeXsI9hDlDG1h-1836" value="Коли?" style="rounded=1;whiteSpace=wrap;html=1;shadow=0;labelBackgroundColor=none;strokeColor=none;strokeWidth=3;fillColor=#64bbe2;fontFamily=Helvetica;fontSize=14;fontColor=#FFFFFF;align=center;spacing=5;arcSize=7;perimeterSpacing=2;" parent="1" vertex="1">
          <mxGeometry x="866.5" y="791" width="75" height="60" as="geometry" />
        </mxCell>
        <mxCell id="KxXHiPZeeXsI9hDlDG1h-1837" value="" style="edgeStyle=none;rounded=0;jumpStyle=none;html=1;shadow=0;labelBackgroundColor=none;startArrow=none;startFill=0;endArrow=classic;endFill=1;jettySize=auto;orthogonalLoop=1;strokeColor=#1699D3;strokeWidth=3;fontFamily=Helvetica;fontSize=14;fontColor=#FFFFFF;spacing=5;exitX=1;exitY=0.5;exitDx=0;exitDy=0;" parent="1" source="1760" target="KxXHiPZeeXsI9hDlDG1h-1838" edge="1">
          <mxGeometry relative="1" as="geometry">
            <mxPoint x="912.75" y="712" as="sourcePoint" />
          </mxGeometry>
        </mxCell>
        <mxCell id="KxXHiPZeeXsI9hDlDG1h-1838" value="Як?" style="rounded=1;whiteSpace=wrap;html=1;shadow=0;labelBackgroundColor=none;strokeColor=none;strokeWidth=3;fillColor=#64bbe2;fontFamily=Helvetica;fontSize=14;fontColor=#FFFFFF;align=center;spacing=5;arcSize=7;perimeterSpacing=2;" parent="1" vertex="1">
          <mxGeometry x="1100.5" y="690" width="75" height="60" as="geometry" />
        </mxCell>
        <mxCell id="KxXHiPZeeXsI9hDlDG1h-1841" value="" style="edgeStyle=none;rounded=1;jumpStyle=none;html=1;shadow=0;labelBackgroundColor=none;startArrow=none;startFill=0;jettySize=auto;orthogonalLoop=1;strokeColor=#E85642;strokeWidth=3;fontFamily=Helvetica;fontSize=14;fontColor=#FFFFFF;spacing=5;fontStyle=1;fillColor=#b0e3e6;exitX=0.382;exitY=0.011;exitDx=0;exitDy=0;exitPerimeter=0;" parent="1" source="1753" target="KxXHiPZeeXsI9hDlDG1h-1842" edge="1">
          <mxGeometry relative="1" as="geometry">
            <mxPoint x="319.3587786259541" y="523.5" as="sourcePoint" />
          </mxGeometry>
        </mxCell>
        <mxCell id="KxXHiPZeeXsI9hDlDG1h-1842" value="Що?" style="rounded=1;whiteSpace=wrap;html=1;shadow=0;labelBackgroundColor=none;strokeColor=none;strokeWidth=3;fillColor=#f08e81;fontFamily=Helvetica;fontSize=14;fontColor=#FFFFFF;align=center;spacing=5;fontStyle=0;arcSize=7;perimeterSpacing=2;" parent="1" vertex="1">
          <mxGeometry x="282" y="315" width="64" height="55" as="geometry" />
        </mxCell>
        <mxCell id="KxXHiPZeeXsI9hDlDG1h-1843" value="" style="edgeStyle=none;rounded=1;jumpStyle=none;html=1;shadow=0;labelBackgroundColor=none;startArrow=none;startFill=0;jettySize=auto;orthogonalLoop=1;strokeColor=#E85642;strokeWidth=3;fontFamily=Helvetica;fontSize=14;fontColor=#FFFFFF;spacing=5;fontStyle=1;fillColor=#b0e3e6;exitX=0.03;exitY=0.125;exitDx=0;exitDy=0;exitPerimeter=0;" parent="1" source="1753" target="KxXHiPZeeXsI9hDlDG1h-1844" edge="1">
          <mxGeometry relative="1" as="geometry">
            <mxPoint x="396.9580000000001" y="623.008" as="sourcePoint" />
          </mxGeometry>
        </mxCell>
        <mxCell id="KxXHiPZeeXsI9hDlDG1h-1844" value="Де?" style="rounded=1;whiteSpace=wrap;html=1;shadow=0;labelBackgroundColor=none;strokeColor=none;strokeWidth=3;fillColor=#f08e81;fontFamily=Helvetica;fontSize=14;fontColor=#FFFFFF;align=center;spacing=5;fontStyle=0;arcSize=7;perimeterSpacing=2;" parent="1" vertex="1">
          <mxGeometry x="276" y="435" width="70" height="57" as="geometry" />
        </mxCell>
        <mxCell id="KxXHiPZeeXsI9hDlDG1h-1845" value="" style="edgeStyle=none;rounded=1;jumpStyle=none;html=1;shadow=0;labelBackgroundColor=none;startArrow=none;startFill=0;jettySize=auto;orthogonalLoop=1;strokeColor=#E85642;strokeWidth=3;fontFamily=Helvetica;fontSize=14;fontColor=#FFFFFF;spacing=5;fontStyle=1;fillColor=#b0e3e6;entryX=1;entryY=0.5;entryDx=0;entryDy=0;exitX=0.04;exitY=0.906;exitDx=0;exitDy=0;exitPerimeter=0;" parent="1" source="1753" target="KxXHiPZeeXsI9hDlDG1h-1846" edge="1">
          <mxGeometry relative="1" as="geometry">
            <mxPoint x="430.9580000000001" y="741.008" as="sourcePoint" />
          </mxGeometry>
        </mxCell>
        <mxCell id="KxXHiPZeeXsI9hDlDG1h-1846" value="Коли?" style="rounded=1;whiteSpace=wrap;html=1;shadow=0;labelBackgroundColor=none;strokeColor=none;strokeWidth=3;fillColor=#f08e81;fontFamily=Helvetica;fontSize=14;fontColor=#FFFFFF;align=center;spacing=5;fontStyle=0;arcSize=7;perimeterSpacing=2;" parent="1" vertex="1">
          <mxGeometry x="276" y="633" width="63" height="57" as="geometry" />
        </mxCell>
        <mxCell id="KxXHiPZeeXsI9hDlDG1h-1847" value="" style="edgeStyle=none;rounded=1;jumpStyle=none;html=1;shadow=0;labelBackgroundColor=none;startArrow=none;startFill=0;jettySize=auto;orthogonalLoop=1;strokeColor=#E85642;strokeWidth=3;fontFamily=Helvetica;fontSize=14;fontColor=#FFFFFF;spacing=5;fontStyle=1;fillColor=#b0e3e6;entryX=1;entryY=0;entryDx=0;entryDy=0;" parent="1" source="1753" target="KxXHiPZeeXsI9hDlDG1h-1848" edge="1">
          <mxGeometry relative="1" as="geometry">
            <mxPoint x="472.9580000000001" y="757.008" as="sourcePoint" />
          </mxGeometry>
        </mxCell>
        <mxCell id="KxXHiPZeeXsI9hDlDG1h-1848" value="Як?" style="rounded=1;whiteSpace=wrap;html=1;shadow=0;labelBackgroundColor=none;strokeColor=none;strokeWidth=3;fillColor=#f08e81;fontFamily=Helvetica;fontSize=14;fontColor=#FFFFFF;align=center;spacing=5;fontStyle=0;arcSize=7;perimeterSpacing=2;" parent="1" vertex="1">
          <mxGeometry x="273" y="819" width="69" height="57" as="geometry" />
        </mxCell>
        <mxCell id="KxXHiPZeeXsI9hDlDG1h-1849" value="Інформація" style="fontFamily=Helvetica;fontSize=14;" parent="1" vertex="1">
          <mxGeometry x="1463" y="75.5" width="82" height="60" as="geometry" />
        </mxCell>
        <mxCell id="KxXHiPZeeXsI9hDlDG1h-1850" value="" style="edgeStyle=none;rounded=1;jumpStyle=none;html=1;shadow=0;labelBackgroundColor=none;startArrow=none;startFill=0;jettySize=auto;orthogonalLoop=1;strokeColor=#12AAB5;strokeWidth=3;fontFamily=Helvetica;fontSize=14;fontColor=#FFFFFF;spacing=5;fontStyle=1;fillColor=#b0e3e6;entryX=0.5;entryY=1;entryDx=0;entryDy=0;" parent="1" source="KxXHiPZeeXsI9hDlDG1h-1779" target="KxXHiPZeeXsI9hDlDG1h-1849" edge="1">
          <mxGeometry relative="1" as="geometry">
            <mxPoint x="1680.5" y="289" as="sourcePoint" />
            <mxPoint x="1672" y="237" as="targetPoint" />
          </mxGeometry>
        </mxCell>
        <mxCell id="KxXHiPZeeXsI9hDlDG1h-1851" value="Інформація" style="fontFamily=Helvetica;fontSize=14;" parent="1" vertex="1">
          <mxGeometry x="1560" y="75.5" width="82" height="60" as="geometry" />
        </mxCell>
        <mxCell id="KxXHiPZeeXsI9hDlDG1h-1852" value="Інформація" style="fontFamily=Helvetica;fontSize=14;" parent="1" vertex="1">
          <mxGeometry x="1572" y="296" width="82" height="60" as="geometry" />
        </mxCell>
        <mxCell id="KxXHiPZeeXsI9hDlDG1h-1853" value="" style="edgeStyle=none;rounded=1;jumpStyle=none;html=1;shadow=0;labelBackgroundColor=none;startArrow=none;startFill=0;jettySize=auto;orthogonalLoop=1;strokeColor=#12AAB5;strokeWidth=3;fontFamily=Helvetica;fontSize=14;fontColor=#FFFFFF;spacing=5;fontStyle=1;fillColor=#b0e3e6;entryX=0;entryY=0.5;entryDx=0;entryDy=0;exitX=1;exitY=0.25;exitDx=0;exitDy=0;" parent="1" source="KxXHiPZeeXsI9hDlDG1h-1781" target="KxXHiPZeeXsI9hDlDG1h-1852" edge="1">
          <mxGeometry relative="1" as="geometry">
            <mxPoint x="1201.25" y="405" as="sourcePoint" />
            <mxPoint x="1124.25" y="429.12345679012344" as="targetPoint" />
          </mxGeometry>
        </mxCell>
        <mxCell id="KxXHiPZeeXsI9hDlDG1h-1855" value="" style="edgeStyle=none;rounded=1;jumpStyle=none;html=1;shadow=0;labelBackgroundColor=none;startArrow=none;startFill=0;jettySize=auto;orthogonalLoop=1;strokeColor=#12AAB5;strokeWidth=3;fontFamily=Helvetica;fontSize=14;fontColor=#FFFFFF;spacing=5;fontStyle=1;fillColor=#b0e3e6;" parent="1" source="KxXHiPZeeXsI9hDlDG1h-1780" target="KxXHiPZeeXsI9hDlDG1h-1851" edge="1">
          <mxGeometry relative="1" as="geometry">
            <mxPoint x="1852" y="270" as="sourcePoint" />
            <mxPoint x="1877" y="270" as="targetPoint" />
          </mxGeometry>
        </mxCell>
        <mxCell id="KxXHiPZeeXsI9hDlDG1h-1856" value="Приходить" style="rounded=1;whiteSpace=wrap;html=1;shadow=0;fillColor=#DEF5EB;fontFamily=Helvetica;fontSize=14;fontColor=#000000;align=center;spacing=5;fontStyle=0;arcSize=7;perimeterSpacing=2;" parent="1" vertex="1">
          <mxGeometry x="1455" y="350" width="82" height="60" as="geometry" />
        </mxCell>
        <mxCell id="KxXHiPZeeXsI9hDlDG1h-1857" value="Обробляється" style="rounded=1;whiteSpace=wrap;html=1;shadow=0;fillColor=#DEF5EB;fontFamily=Helvetica;fontSize=14;fontColor=#000000;align=center;spacing=5;fontStyle=0;arcSize=7;perimeterSpacing=2;" parent="1" vertex="1">
          <mxGeometry x="1441" y="435" width="106" height="60" as="geometry" />
        </mxCell>
        <mxCell id="KxXHiPZeeXsI9hDlDG1h-1858" value="Виходить" style="rounded=1;whiteSpace=wrap;html=1;shadow=0;fillColor=#DEF5EB;fontFamily=Helvetica;fontSize=14;fontColor=#000000;align=center;spacing=5;fontStyle=0;arcSize=7;perimeterSpacing=2;" parent="1" vertex="1">
          <mxGeometry x="1454" y="509" width="84" height="60" as="geometry" />
        </mxCell>
        <mxCell id="KxXHiPZeeXsI9hDlDG1h-1859" value="" style="edgeStyle=none;rounded=1;jumpStyle=none;html=1;shadow=0;labelBackgroundColor=none;startArrow=none;startFill=0;jettySize=auto;orthogonalLoop=1;strokeColor=#12AAB5;strokeWidth=3;fontFamily=Helvetica;fontSize=14;fontColor=#FFFFFF;spacing=5;fontStyle=1;fillColor=#b0e3e6;exitX=1;exitY=0;exitDx=0;exitDy=0;" parent="1" source="1776" target="KxXHiPZeeXsI9hDlDG1h-1856" edge="1">
          <mxGeometry relative="1" as="geometry">
            <mxPoint x="1669.25" y="363.5" as="sourcePoint" />
            <mxPoint x="1660.75" y="311.4999999999999" as="targetPoint" />
          </mxGeometry>
        </mxCell>
        <mxCell id="KxXHiPZeeXsI9hDlDG1h-1860" value="" style="edgeStyle=none;rounded=1;jumpStyle=none;html=1;shadow=0;labelBackgroundColor=none;startArrow=none;startFill=0;jettySize=auto;orthogonalLoop=1;strokeColor=#12AAB5;strokeWidth=3;fontFamily=Helvetica;fontSize=14;fontColor=#FFFFFF;spacing=5;fontStyle=1;fillColor=#b0e3e6;" parent="1" source="1776" target="KxXHiPZeeXsI9hDlDG1h-1857" edge="1">
          <mxGeometry relative="1" as="geometry">
            <mxPoint x="1538.7040000000002" y="620.476" as="sourcePoint" />
            <mxPoint x="1573.4425086139822" y="580.4999999999999" as="targetPoint" />
          </mxGeometry>
        </mxCell>
        <mxCell id="KxXHiPZeeXsI9hDlDG1h-1861" value="" style="edgeStyle=none;rounded=1;jumpStyle=none;html=1;shadow=0;labelBackgroundColor=none;startArrow=none;startFill=0;jettySize=auto;orthogonalLoop=1;strokeColor=#12AAB5;strokeWidth=3;fontFamily=Helvetica;fontSize=14;fontColor=#FFFFFF;spacing=5;fontStyle=1;fillColor=#b0e3e6;exitX=1;exitY=1;exitDx=0;exitDy=0;entryX=0;entryY=0.5;entryDx=0;entryDy=0;" parent="1" source="1776" target="KxXHiPZeeXsI9hDlDG1h-1858" edge="1">
          <mxGeometry relative="1" as="geometry">
            <mxPoint x="1543.75" y="653.5" as="sourcePoint" />
            <mxPoint x="1580.75" y="641.6234567901234" as="targetPoint" />
          </mxGeometry>
        </mxCell>
        <mxCell id="KxXHiPZeeXsI9hDlDG1h-1862" value="Університет" style="fontFamily=Helvetica;fontSize=14;" parent="1" vertex="1">
          <mxGeometry x="1572" y="373.5" width="82" height="60" as="geometry" />
        </mxCell>
        <mxCell id="KxXHiPZeeXsI9hDlDG1h-1863" value="" style="edgeStyle=none;rounded=1;jumpStyle=none;html=1;shadow=0;labelBackgroundColor=none;startArrow=none;startFill=0;jettySize=auto;orthogonalLoop=1;strokeColor=#12AAB5;strokeWidth=3;fontFamily=Helvetica;fontSize=14;fontColor=#FFFFFF;spacing=5;fontStyle=1;fillColor=#b0e3e6;entryX=0;entryY=0.5;entryDx=0;entryDy=0;" parent="1" source="KxXHiPZeeXsI9hDlDG1h-1856" target="KxXHiPZeeXsI9hDlDG1h-1862" edge="1">
          <mxGeometry relative="1" as="geometry">
            <mxPoint x="1674.5" y="422.5" as="sourcePoint" />
            <mxPoint x="1666" y="370.5" as="targetPoint" />
          </mxGeometry>
        </mxCell>
        <mxCell id="KxXHiPZeeXsI9hDlDG1h-1864" value="Мозок" style="fontFamily=Helvetica;fontSize=14;" parent="1" vertex="1">
          <mxGeometry x="1572" y="443" width="82" height="60" as="geometry" />
        </mxCell>
        <mxCell id="KxXHiPZeeXsI9hDlDG1h-1865" value="Знання, &#xa;навички" style="fontFamily=Helvetica;fontSize=14;" parent="1" vertex="1">
          <mxGeometry x="1572" y="515" width="82" height="60" as="geometry" />
        </mxCell>
        <mxCell id="KxXHiPZeeXsI9hDlDG1h-1866" value="" style="edgeStyle=none;rounded=1;jumpStyle=none;html=1;shadow=0;labelBackgroundColor=none;startArrow=none;startFill=0;jettySize=auto;orthogonalLoop=1;strokeColor=#12AAB5;strokeWidth=3;fontFamily=Helvetica;fontSize=14;fontColor=#FFFFFF;spacing=5;fontStyle=1;fillColor=#b0e3e6;entryX=0;entryY=0.5;entryDx=0;entryDy=0;" parent="1" source="KxXHiPZeeXsI9hDlDG1h-1858" target="KxXHiPZeeXsI9hDlDG1h-1865" edge="1">
          <mxGeometry relative="1" as="geometry">
            <mxPoint x="1667" y="651.5" as="sourcePoint" />
            <mxPoint x="1590" y="675.6234567901234" as="targetPoint" />
          </mxGeometry>
        </mxCell>
        <mxCell id="KxXHiPZeeXsI9hDlDG1h-1867" value="" style="edgeStyle=none;rounded=1;jumpStyle=none;html=1;shadow=0;labelBackgroundColor=none;startArrow=none;startFill=0;jettySize=auto;orthogonalLoop=1;strokeColor=#12AAB5;strokeWidth=3;fontFamily=Helvetica;fontSize=14;fontColor=#FFFFFF;spacing=5;fontStyle=1;fillColor=#b0e3e6;" parent="1" source="KxXHiPZeeXsI9hDlDG1h-1857" target="KxXHiPZeeXsI9hDlDG1h-1864" edge="1">
          <mxGeometry relative="1" as="geometry">
            <mxPoint x="1677" y="661.5" as="sourcePoint" />
            <mxPoint x="1702" y="661.5" as="targetPoint" />
          </mxGeometry>
        </mxCell>
        <mxCell id="KxXHiPZeeXsI9hDlDG1h-1869" value="Приходить" style="rounded=1;whiteSpace=wrap;html=1;shadow=0;fillColor=#DEF5EB;fontFamily=Helvetica;fontSize=14;fontColor=#000000;align=center;spacing=5;fontStyle=0;arcSize=7;perimeterSpacing=2;" parent="1" vertex="1">
          <mxGeometry x="1456" y="590" width="82" height="58.5" as="geometry" />
        </mxCell>
        <mxCell id="KxXHiPZeeXsI9hDlDG1h-1870" value="Обробляється" style="rounded=1;whiteSpace=wrap;html=1;shadow=0;fillColor=#DEF5EB;fontFamily=Helvetica;fontSize=14;fontColor=#000000;align=center;spacing=5;fontStyle=0;arcSize=7;perimeterSpacing=2;" parent="1" vertex="1">
          <mxGeometry x="1442" y="662" width="106" height="60" as="geometry" />
        </mxCell>
        <mxCell id="KxXHiPZeeXsI9hDlDG1h-1871" value="Виходить" style="rounded=1;whiteSpace=wrap;html=1;shadow=0;fillColor=#DEF5EB;fontFamily=Helvetica;fontSize=14;fontColor=#000000;align=center;spacing=5;fontStyle=0;arcSize=7;perimeterSpacing=2;" parent="1" vertex="1">
          <mxGeometry x="1451" y="745" width="84" height="60" as="geometry" />
        </mxCell>
        <mxCell id="KxXHiPZeeXsI9hDlDG1h-1872" value="" style="edgeStyle=none;rounded=1;jumpStyle=none;html=1;shadow=0;labelBackgroundColor=none;startArrow=none;startFill=0;jettySize=auto;orthogonalLoop=1;strokeColor=#12AAB5;strokeWidth=3;fontFamily=Helvetica;fontSize=14;fontColor=#FFFFFF;spacing=5;fontStyle=1;fillColor=#b0e3e6;exitX=0;exitY=0;exitDx=0;exitDy=0;" parent="1" source="1774" target="KxXHiPZeeXsI9hDlDG1h-1869" edge="1">
          <mxGeometry relative="1" as="geometry">
            <mxPoint x="1402.75" y="648" as="sourcePoint" />
            <mxPoint x="1667.75" y="547.4999999999999" as="targetPoint" />
          </mxGeometry>
        </mxCell>
        <mxCell id="KxXHiPZeeXsI9hDlDG1h-1873" value="" style="edgeStyle=none;rounded=1;jumpStyle=none;html=1;shadow=0;labelBackgroundColor=none;startArrow=none;startFill=0;jettySize=auto;orthogonalLoop=1;strokeColor=#12AAB5;strokeWidth=3;fontFamily=Helvetica;fontSize=14;fontColor=#FFFFFF;spacing=5;fontStyle=1;fillColor=#b0e3e6;" parent="1" source="1774" target="KxXHiPZeeXsI9hDlDG1h-1870" edge="1">
          <mxGeometry relative="1" as="geometry">
            <mxPoint x="1418.75" y="689.5148936170212" as="sourcePoint" />
            <mxPoint x="1580.4425086139822" y="816.5" as="targetPoint" />
          </mxGeometry>
        </mxCell>
        <mxCell id="KxXHiPZeeXsI9hDlDG1h-1874" value="" style="edgeStyle=none;rounded=1;jumpStyle=none;html=1;shadow=0;labelBackgroundColor=none;startArrow=none;startFill=0;jettySize=auto;orthogonalLoop=1;strokeColor=#12AAB5;strokeWidth=3;fontFamily=Helvetica;fontSize=14;fontColor=#FFFFFF;spacing=5;fontStyle=1;fillColor=#b0e3e6;entryX=0;entryY=0.5;entryDx=0;entryDy=0;" parent="1" source="1774" target="KxXHiPZeeXsI9hDlDG1h-1871" edge="1">
          <mxGeometry relative="1" as="geometry">
            <mxPoint x="1418.75" y="724" as="sourcePoint" />
            <mxPoint x="1587.75" y="877.6234567901233" as="targetPoint" />
          </mxGeometry>
        </mxCell>
        <mxCell id="KxXHiPZeeXsI9hDlDG1h-1875" value="Під час &#xa;занять" style="fontFamily=Helvetica;fontSize=14;" parent="1" vertex="1">
          <mxGeometry x="1572" y="589" width="82" height="60" as="geometry" />
        </mxCell>
        <mxCell id="KxXHiPZeeXsI9hDlDG1h-1876" value="" style="edgeStyle=none;rounded=1;jumpStyle=none;html=1;shadow=0;labelBackgroundColor=none;startArrow=none;startFill=0;jettySize=auto;orthogonalLoop=1;strokeColor=#12AAB5;strokeWidth=3;fontFamily=Helvetica;fontSize=14;fontColor=#FFFFFF;spacing=5;fontStyle=1;fillColor=#b0e3e6;entryX=0;entryY=0.5;entryDx=0;entryDy=0;" parent="1" source="KxXHiPZeeXsI9hDlDG1h-1869" target="KxXHiPZeeXsI9hDlDG1h-1875" edge="1">
          <mxGeometry relative="1" as="geometry">
            <mxPoint x="1681.5" y="658.5" as="sourcePoint" />
            <mxPoint x="1673" y="606.5" as="targetPoint" />
          </mxGeometry>
        </mxCell>
        <mxCell id="KxXHiPZeeXsI9hDlDG1h-1877" value="Під час &#xa;занять" style="fontFamily=Helvetica;fontSize=14;" parent="1" vertex="1">
          <mxGeometry x="1572" y="662" width="82" height="60" as="geometry" />
        </mxCell>
        <mxCell id="KxXHiPZeeXsI9hDlDG1h-1878" value="Робота" style="fontFamily=Helvetica;fontSize=13;" parent="1" vertex="1">
          <mxGeometry x="1572" y="745" width="82" height="60" as="geometry" />
        </mxCell>
        <mxCell id="KxXHiPZeeXsI9hDlDG1h-1879" value="" style="edgeStyle=none;rounded=1;jumpStyle=none;html=1;shadow=0;labelBackgroundColor=none;startArrow=none;startFill=0;jettySize=auto;orthogonalLoop=1;strokeColor=#12AAB5;strokeWidth=3;fontFamily=Helvetica;fontSize=14;fontColor=#FFFFFF;spacing=5;fontStyle=1;fillColor=#b0e3e6;entryX=0;entryY=0.5;entryDx=0;entryDy=0;" parent="1" source="KxXHiPZeeXsI9hDlDG1h-1871" target="KxXHiPZeeXsI9hDlDG1h-1878" edge="1">
          <mxGeometry relative="1" as="geometry">
            <mxPoint x="1674" y="887.5" as="sourcePoint" />
            <mxPoint x="1597" y="911.6234567901233" as="targetPoint" />
          </mxGeometry>
        </mxCell>
        <mxCell id="KxXHiPZeeXsI9hDlDG1h-1880" value="" style="edgeStyle=none;rounded=1;jumpStyle=none;html=1;shadow=0;labelBackgroundColor=none;startArrow=none;startFill=0;jettySize=auto;orthogonalLoop=1;strokeColor=#12AAB5;strokeWidth=3;fontFamily=Helvetica;fontSize=14;fontColor=#FFFFFF;spacing=5;fontStyle=1;fillColor=#b0e3e6;" parent="1" source="KxXHiPZeeXsI9hDlDG1h-1870" target="KxXHiPZeeXsI9hDlDG1h-1877" edge="1">
          <mxGeometry relative="1" as="geometry">
            <mxPoint x="1684" y="897.5" as="sourcePoint" />
            <mxPoint x="1709" y="897.5" as="targetPoint" />
          </mxGeometry>
        </mxCell>
        <mxCell id="KxXHiPZeeXsI9hDlDG1h-1881" value="Приходить" style="rounded=1;whiteSpace=wrap;html=1;shadow=0;fillColor=#DEF5EB;fontFamily=Helvetica;fontSize=14;fontColor=#000000;align=center;spacing=5;fontStyle=0;arcSize=7;perimeterSpacing=2;" parent="1" vertex="1">
          <mxGeometry x="1454" y="824" width="82" height="60" as="geometry" />
        </mxCell>
        <mxCell id="KxXHiPZeeXsI9hDlDG1h-1882" value="Обробляється" style="rounded=1;whiteSpace=wrap;html=1;shadow=0;fillColor=#DEF5EB;fontFamily=Helvetica;fontSize=14;fontColor=#000000;align=center;spacing=5;fontStyle=0;arcSize=7;perimeterSpacing=2;" parent="1" vertex="1">
          <mxGeometry x="1513" y="940" width="106" height="60" as="geometry" />
        </mxCell>
        <mxCell id="KxXHiPZeeXsI9hDlDG1h-1883" value="Виходить" style="rounded=1;whiteSpace=wrap;html=1;shadow=0;fillColor=#DEF5EB;fontFamily=Helvetica;fontSize=14;fontColor=#000000;align=center;spacing=5;fontStyle=0;arcSize=7;perimeterSpacing=2;" parent="1" vertex="1">
          <mxGeometry x="1414" y="940" width="84" height="60" as="geometry" />
        </mxCell>
        <mxCell id="KxXHiPZeeXsI9hDlDG1h-1884" value="" style="edgeStyle=none;rounded=1;jumpStyle=none;html=1;shadow=0;labelBackgroundColor=none;startArrow=none;startFill=0;jettySize=auto;orthogonalLoop=1;strokeColor=#12AAB5;strokeWidth=3;fontFamily=Helvetica;fontSize=14;fontColor=#FFFFFF;spacing=5;fontStyle=1;fillColor=#b0e3e6;exitX=1;exitY=0.75;exitDx=0;exitDy=0;" parent="1" source="1772" target="KxXHiPZeeXsI9hDlDG1h-1881" edge="1">
          <mxGeometry relative="1" as="geometry">
            <mxPoint x="1385.8899999999999" y="1085.7500000000002" as="sourcePoint" />
            <mxPoint x="1640.8900000000003" y="997.5" as="targetPoint" />
          </mxGeometry>
        </mxCell>
        <mxCell id="KxXHiPZeeXsI9hDlDG1h-1885" value="" style="edgeStyle=none;rounded=1;jumpStyle=none;html=1;shadow=0;labelBackgroundColor=none;startArrow=none;startFill=0;jettySize=auto;orthogonalLoop=1;strokeColor=#12AAB5;strokeWidth=3;fontFamily=Helvetica;fontSize=14;fontColor=#FFFFFF;spacing=5;fontStyle=1;fillColor=#b0e3e6;exitX=0.5;exitY=1;exitDx=0;exitDy=0;entryX=0.5;entryY=0;entryDx=0;entryDy=0;" parent="1" source="1772" target="KxXHiPZeeXsI9hDlDG1h-1882" edge="1">
          <mxGeometry relative="1" as="geometry">
            <mxPoint x="1550.8899999999999" y="1139.477412731006" as="sourcePoint" />
            <mxPoint x="1718.582508613982" y="1283.5" as="targetPoint" />
          </mxGeometry>
        </mxCell>
        <mxCell id="KxXHiPZeeXsI9hDlDG1h-1886" value="" style="edgeStyle=none;rounded=1;jumpStyle=none;html=1;shadow=0;labelBackgroundColor=none;startArrow=none;startFill=0;jettySize=auto;orthogonalLoop=1;strokeColor=#12AAB5;strokeWidth=3;fontFamily=Helvetica;fontSize=14;fontColor=#FFFFFF;spacing=5;fontStyle=1;fillColor=#b0e3e6;exitX=0.25;exitY=1;exitDx=0;exitDy=0;entryX=0.5;entryY=0;entryDx=0;entryDy=0;" parent="1" source="1772" target="KxXHiPZeeXsI9hDlDG1h-1883" edge="1">
          <mxGeometry relative="1" as="geometry">
            <mxPoint x="1541.002343966713" y="1166.9999999999998" as="sourcePoint" />
            <mxPoint x="1725.8899999999999" y="1344.6234567901233" as="targetPoint" />
          </mxGeometry>
        </mxCell>
        <mxCell id="KxXHiPZeeXsI9hDlDG1h-1887" value="З джерел" style="fontFamily=Helvetica;fontSize=14;" parent="1" vertex="1">
          <mxGeometry x="1572" y="824" width="82" height="60" as="geometry" />
        </mxCell>
        <mxCell id="KxXHiPZeeXsI9hDlDG1h-1888" value="" style="edgeStyle=none;rounded=1;jumpStyle=none;html=1;shadow=0;labelBackgroundColor=none;startArrow=none;startFill=0;jettySize=auto;orthogonalLoop=1;strokeColor=#12AAB5;strokeWidth=3;fontFamily=Helvetica;fontSize=14;fontColor=#FFFFFF;spacing=5;fontStyle=1;fillColor=#b0e3e6;entryX=0;entryY=0.5;entryDx=0;entryDy=0;" parent="1" source="KxXHiPZeeXsI9hDlDG1h-1881" target="KxXHiPZeeXsI9hDlDG1h-1887" edge="1">
          <mxGeometry relative="1" as="geometry">
            <mxPoint x="1492.64" y="1108.5" as="sourcePoint" />
            <mxPoint x="1575.7500000000005" y="978" as="targetPoint" />
          </mxGeometry>
        </mxCell>
        <mxCell id="KxXHiPZeeXsI9hDlDG1h-1889" value="Активно" style="fontFamily=Helvetica;fontSize=14;" parent="1" vertex="1">
          <mxGeometry x="1537" y="1036" width="82" height="60" as="geometry" />
        </mxCell>
        <mxCell id="KxXHiPZeeXsI9hDlDG1h-1890" value="У вигляді &#xa;навичок" style="fontFamily=Helvetica;fontSize=14;" parent="1" vertex="1">
          <mxGeometry x="1442" y="1036" width="82" height="60" as="geometry" />
        </mxCell>
        <mxCell id="KxXHiPZeeXsI9hDlDG1h-1891" value="" style="edgeStyle=none;rounded=1;jumpStyle=none;html=1;shadow=0;labelBackgroundColor=none;startArrow=none;startFill=0;jettySize=auto;orthogonalLoop=1;strokeColor=#12AAB5;strokeWidth=3;fontFamily=Helvetica;fontSize=14;fontColor=#FFFFFF;spacing=5;fontStyle=1;fillColor=#b0e3e6;entryX=0.5;entryY=0;entryDx=0;entryDy=0;" parent="1" source="KxXHiPZeeXsI9hDlDG1h-1883" target="KxXHiPZeeXsI9hDlDG1h-1890" edge="1">
          <mxGeometry relative="1" as="geometry">
            <mxPoint x="1718.5" y="1372.5" as="sourcePoint" />
            <mxPoint x="1641.5" y="1396.6234567901233" as="targetPoint" />
          </mxGeometry>
        </mxCell>
        <mxCell id="KxXHiPZeeXsI9hDlDG1h-1892" value="" style="edgeStyle=none;rounded=1;jumpStyle=none;html=1;shadow=0;labelBackgroundColor=none;startArrow=none;startFill=0;jettySize=auto;orthogonalLoop=1;strokeColor=#12AAB5;strokeWidth=3;fontFamily=Helvetica;fontSize=14;fontColor=#FFFFFF;spacing=5;fontStyle=1;fillColor=#b0e3e6;" parent="1" source="KxXHiPZeeXsI9hDlDG1h-1882" target="KxXHiPZeeXsI9hDlDG1h-1889" edge="1">
          <mxGeometry relative="1" as="geometry">
            <mxPoint x="1820.8900000000003" y="1347.5" as="sourcePoint" />
            <mxPoint x="1845.8900000000003" y="1347.5" as="targetPoint" />
          </mxGeometry>
        </mxCell>
        <mxCell id="KxXHiPZeeXsI9hDlDG1h-1894" value="Виходить" style="rounded=1;whiteSpace=wrap;html=1;shadow=0;fillColor=#fae8e6;fontFamily=Helvetica;fontSize=14;fontColor=#000000;align=center;spacing=5;fontStyle=0;arcSize=7;perimeterSpacing=2;direction=south;" parent="1" vertex="1">
          <mxGeometry x="127" y="352" width="82" height="60" as="geometry" />
        </mxCell>
        <mxCell id="KxXHiPZeeXsI9hDlDG1h-1895" value="Приходить" style="rounded=1;whiteSpace=wrap;html=1;shadow=0;fillColor=#fae8e6;fontFamily=Helvetica;fontSize=14;fontColor=#000000;align=center;spacing=5;fontStyle=0;arcSize=7;perimeterSpacing=2;direction=south;" parent="1" vertex="1">
          <mxGeometry x="125" y="509" width="84" height="60" as="geometry" />
        </mxCell>
        <mxCell id="KxXHiPZeeXsI9hDlDG1h-1896" value="В житті" style="fontFamily=Helvetica;fontSize=14;" parent="1" vertex="1">
          <mxGeometry x="7" y="350" width="82" height="60" as="geometry" />
        </mxCell>
        <mxCell id="KxXHiPZeeXsI9hDlDG1h-1897" value="" style="edgeStyle=none;rounded=1;jumpStyle=none;html=1;shadow=0;labelBackgroundColor=none;startArrow=none;startFill=0;jettySize=auto;orthogonalLoop=1;strokeColor=#12AAB5;strokeWidth=3;fontFamily=Helvetica;fontSize=14;fontColor=#FFFFFF;spacing=5;fontStyle=1;fillColor=#b0e3e6;entryX=1;entryY=0.5;entryDx=0;entryDy=0;" parent="1" source="KxXHiPZeeXsI9hDlDG1h-1894" target="KxXHiPZeeXsI9hDlDG1h-1896" edge="1">
          <mxGeometry relative="1" as="geometry">
            <mxPoint x="120.5" y="417.5" as="sourcePoint" />
            <mxPoint x="112" y="365.5" as="targetPoint" />
          </mxGeometry>
        </mxCell>
        <mxCell id="KxXHiPZeeXsI9hDlDG1h-1898" value="В житті" style="fontFamily=Helvetica;fontSize=14;" parent="1" vertex="1">
          <mxGeometry x="7" y="432" width="82" height="60" as="geometry" />
        </mxCell>
        <mxCell id="KxXHiPZeeXsI9hDlDG1h-1899" value="В житті" style="fontFamily=Helvetica;fontSize=14;" parent="1" vertex="1">
          <mxGeometry x="4" y="509" width="82" height="60" as="geometry" />
        </mxCell>
        <mxCell id="KxXHiPZeeXsI9hDlDG1h-1900" value="" style="edgeStyle=none;rounded=1;jumpStyle=none;html=1;shadow=0;labelBackgroundColor=none;startArrow=none;startFill=0;jettySize=auto;orthogonalLoop=1;strokeColor=#12AAB5;strokeWidth=3;fontFamily=Helvetica;fontSize=14;fontColor=#FFFFFF;spacing=5;fontStyle=1;fillColor=#b0e3e6;entryX=1;entryY=0.5;entryDx=0;entryDy=0;" parent="1" source="KxXHiPZeeXsI9hDlDG1h-1895" target="KxXHiPZeeXsI9hDlDG1h-1899" edge="1">
          <mxGeometry relative="1" as="geometry">
            <mxPoint x="113" y="646.5" as="sourcePoint" />
            <mxPoint x="97" y="544" as="targetPoint" />
          </mxGeometry>
        </mxCell>
        <mxCell id="KxXHiPZeeXsI9hDlDG1h-1901" value="" style="edgeStyle=none;rounded=1;jumpStyle=none;html=1;shadow=0;labelBackgroundColor=none;startArrow=none;startFill=0;jettySize=auto;orthogonalLoop=1;strokeColor=#12AAB5;strokeWidth=3;fontFamily=Helvetica;fontSize=14;fontColor=#FFFFFF;spacing=5;fontStyle=1;fillColor=#b0e3e6;entryX=1;entryY=0.5;entryDx=0;entryDy=0;exitX=0.5;exitY=1;exitDx=0;exitDy=0;" parent="1" source="KxXHiPZeeXsI9hDlDG1h-1910" target="KxXHiPZeeXsI9hDlDG1h-1898" edge="1">
          <mxGeometry relative="1" as="geometry">
            <mxPoint x="-5" y="459.07563025210106" as="sourcePoint" />
            <mxPoint x="148" y="656.5" as="targetPoint" />
          </mxGeometry>
        </mxCell>
        <mxCell id="KxXHiPZeeXsI9hDlDG1h-1902" value="Виходить" style="rounded=1;whiteSpace=wrap;html=1;shadow=0;fillColor=#fae8e6;fontFamily=Helvetica;fontSize=14;fontColor=#000000;align=center;spacing=5;fontStyle=0;arcSize=7;perimeterSpacing=2;direction=south;" parent="1" vertex="1">
          <mxGeometry x="120" y="583" width="82" height="60" as="geometry" />
        </mxCell>
        <mxCell id="KxXHiPZeeXsI9hDlDG1h-1903" value="Приходить" style="rounded=1;whiteSpace=wrap;html=1;shadow=0;fillColor=#fae8e6;fontFamily=Helvetica;fontSize=14;fontColor=#000000;align=center;spacing=5;fontStyle=0;arcSize=7;perimeterSpacing=2;direction=south;" parent="1" vertex="1">
          <mxGeometry x="119" y="739" width="84" height="60" as="geometry" />
        </mxCell>
        <mxCell id="KxXHiPZeeXsI9hDlDG1h-1904" value="Під час&#xa;навантажень" style="fontFamily=Helvetica;fontSize=14;" parent="1" vertex="1">
          <mxGeometry x="4" y="583" width="82" height="60" as="geometry" />
        </mxCell>
        <mxCell id="KxXHiPZeeXsI9hDlDG1h-1905" value="" style="edgeStyle=none;rounded=1;jumpStyle=none;html=1;shadow=0;labelBackgroundColor=none;startArrow=none;startFill=0;jettySize=auto;orthogonalLoop=1;strokeColor=#12AAB5;strokeWidth=3;fontFamily=Helvetica;fontSize=14;fontColor=#FFFFFF;spacing=5;fontStyle=1;fillColor=#b0e3e6;entryX=1;entryY=0.5;entryDx=0;entryDy=0;" parent="1" source="KxXHiPZeeXsI9hDlDG1h-1902" target="KxXHiPZeeXsI9hDlDG1h-1904" edge="1">
          <mxGeometry relative="1" as="geometry">
            <mxPoint x="124.5" y="650.5" as="sourcePoint" />
            <mxPoint x="116" y="598.5" as="targetPoint" />
          </mxGeometry>
        </mxCell>
        <mxCell id="KxXHiPZeeXsI9hDlDG1h-1906" value="Розвиток&#xa;тіла" style="fontFamily=Helvetica;fontSize=14;" parent="1" vertex="1">
          <mxGeometry x="4" y="662.25" width="82" height="60" as="geometry" />
        </mxCell>
        <mxCell id="KxXHiPZeeXsI9hDlDG1h-1907" value="Під час&#xa;життя" style="fontFamily=Helvetica;fontSize=14;" parent="1" vertex="1">
          <mxGeometry x="4" y="741" width="82" height="60" as="geometry" />
        </mxCell>
        <mxCell id="KxXHiPZeeXsI9hDlDG1h-1908" value="" style="edgeStyle=none;rounded=1;jumpStyle=none;html=1;shadow=0;labelBackgroundColor=none;startArrow=none;startFill=0;jettySize=auto;orthogonalLoop=1;strokeColor=#12AAB5;strokeWidth=3;fontFamily=Helvetica;fontSize=14;fontColor=#FFFFFF;spacing=5;fontStyle=1;fillColor=#b0e3e6;entryX=1.008;entryY=0.406;entryDx=0;entryDy=0;entryPerimeter=0;exitX=0.5;exitY=1;exitDx=0;exitDy=0;" parent="1" source="KxXHiPZeeXsI9hDlDG1h-1903" target="KxXHiPZeeXsI9hDlDG1h-1907" edge="1">
          <mxGeometry relative="1" as="geometry">
            <mxPoint x="117" y="879.5" as="sourcePoint" />
            <mxPoint x="40" y="903.6234567901233" as="targetPoint" />
          </mxGeometry>
        </mxCell>
        <mxCell id="KxXHiPZeeXsI9hDlDG1h-1909" value="" style="edgeStyle=none;rounded=1;jumpStyle=none;html=1;shadow=0;labelBackgroundColor=none;startArrow=none;startFill=0;jettySize=auto;orthogonalLoop=1;strokeColor=#12AAB5;strokeWidth=3;fontFamily=Helvetica;fontSize=14;fontColor=#FFFFFF;spacing=5;fontStyle=1;fillColor=#b0e3e6;entryX=1;entryY=0.5;entryDx=0;entryDy=0;" parent="1" source="KxXHiPZeeXsI9hDlDG1h-1911" target="KxXHiPZeeXsI9hDlDG1h-1906" edge="1">
          <mxGeometry relative="1" as="geometry">
            <mxPoint x="-0.9999999999995453" y="692.0178571428571" as="sourcePoint" />
            <mxPoint x="152" y="889.5" as="targetPoint" />
          </mxGeometry>
        </mxCell>
        <mxCell id="KxXHiPZeeXsI9hDlDG1h-1910" value="Обробляється" style="rounded=1;whiteSpace=wrap;html=1;shadow=0;fillColor=#fae8e6;fontFamily=Helvetica;fontSize=14;fontColor=#000000;align=center;spacing=5;fontStyle=0;arcSize=7;perimeterSpacing=2;direction=south;" parent="1" vertex="1">
          <mxGeometry x="115" y="432" width="106" height="60" as="geometry" />
        </mxCell>
        <mxCell id="KxXHiPZeeXsI9hDlDG1h-1911" value="Обробляється" style="rounded=1;whiteSpace=wrap;html=1;shadow=0;fillColor=#fae8e6;fontFamily=Helvetica;fontSize=14;fontColor=#000000;align=center;spacing=5;fontStyle=0;arcSize=7;perimeterSpacing=2;direction=south;" parent="1" vertex="1">
          <mxGeometry x="111" y="661" width="106" height="60" as="geometry" />
        </mxCell>
        <mxCell id="KxXHiPZeeXsI9hDlDG1h-1916" value="Приходить" style="rounded=1;whiteSpace=wrap;html=1;shadow=0;fillColor=#fae8e6;fontFamily=Helvetica;fontSize=14;fontColor=#000000;align=center;spacing=5;fontStyle=0;arcSize=7;perimeterSpacing=2;direction=south;" parent="1" vertex="1">
          <mxGeometry x="120" y="280" width="84" height="58" as="geometry" />
        </mxCell>
        <mxCell id="KxXHiPZeeXsI9hDlDG1h-1917" value="Обробляється" style="rounded=1;whiteSpace=wrap;html=1;shadow=0;fillColor=#fae8e6;fontFamily=Helvetica;fontSize=14;fontColor=#000000;align=center;spacing=5;fontStyle=0;arcSize=7;perimeterSpacing=2;direction=south;" parent="1" vertex="1">
          <mxGeometry x="16" y="162.5" width="110" height="59" as="geometry" />
        </mxCell>
        <mxCell id="KxXHiPZeeXsI9hDlDG1h-1918" value="Виходить" style="rounded=1;whiteSpace=wrap;html=1;shadow=0;fillColor=#fae8e6;fontFamily=Helvetica;fontSize=14;fontColor=#000000;align=center;spacing=5;fontStyle=0;arcSize=7;perimeterSpacing=2;direction=south;" parent="1" vertex="1">
          <mxGeometry x="148" y="161.5" width="84" height="60" as="geometry" />
        </mxCell>
        <mxCell id="KxXHiPZeeXsI9hDlDG1h-1919" value="" style="edgeStyle=none;rounded=1;jumpStyle=none;html=1;shadow=0;labelBackgroundColor=none;startArrow=none;startFill=0;jettySize=auto;orthogonalLoop=1;strokeColor=#12AAB5;strokeWidth=3;fontFamily=Helvetica;fontSize=14;fontColor=#FFFFFF;spacing=5;fontStyle=1;fillColor=#b0e3e6;exitX=0;exitY=0.5;exitDx=0;exitDy=0;entryX=0.5;entryY=0;entryDx=0;entryDy=0;" parent="1" source="KxXHiPZeeXsI9hDlDG1h-1842" target="KxXHiPZeeXsI9hDlDG1h-1916" edge="1">
          <mxGeometry relative="1" as="geometry">
            <mxPoint x="379" y="323" as="sourcePoint" />
            <mxPoint x="427" y="252.9999999999999" as="targetPoint" />
          </mxGeometry>
        </mxCell>
        <mxCell id="KxXHiPZeeXsI9hDlDG1h-1920" value="" style="edgeStyle=none;rounded=1;jumpStyle=none;html=1;shadow=0;labelBackgroundColor=none;startArrow=none;startFill=0;jettySize=auto;orthogonalLoop=1;strokeColor=#12AAB5;strokeWidth=3;fontFamily=Helvetica;fontSize=14;fontColor=#FFFFFF;spacing=5;fontStyle=1;fillColor=#b0e3e6;exitX=0;exitY=0;exitDx=0;exitDy=0;" parent="1" source="KxXHiPZeeXsI9hDlDG1h-1842" target="KxXHiPZeeXsI9hDlDG1h-1917" edge="1">
          <mxGeometry relative="1" as="geometry">
            <mxPoint x="378.5340000000001" y="324.9759999999999" as="sourcePoint" />
            <mxPoint x="457.6925086139822" y="263.9999999999999" as="targetPoint" />
          </mxGeometry>
        </mxCell>
        <mxCell id="KxXHiPZeeXsI9hDlDG1h-1921" value="М&#39;язи" style="fontFamily=Helvetica;fontSize=14;" parent="1" vertex="1">
          <mxGeometry x="7" y="279" width="82" height="60" as="geometry" />
        </mxCell>
        <mxCell id="KxXHiPZeeXsI9hDlDG1h-1922" value="" style="edgeStyle=none;rounded=1;jumpStyle=none;html=1;shadow=0;labelBackgroundColor=none;startArrow=none;startFill=0;jettySize=auto;orthogonalLoop=1;strokeColor=#12AAB5;strokeWidth=3;fontFamily=Helvetica;fontSize=14;fontColor=#FFFFFF;spacing=5;fontStyle=1;fillColor=#b0e3e6;entryX=1;entryY=0.5;entryDx=0;entryDy=0;" parent="1" source="KxXHiPZeeXsI9hDlDG1h-1916" target="KxXHiPZeeXsI9hDlDG1h-1921" edge="1">
          <mxGeometry relative="1" as="geometry">
            <mxPoint x="479.5" y="342" as="sourcePoint" />
            <mxPoint x="471" y="290" as="targetPoint" />
          </mxGeometry>
        </mxCell>
        <mxCell id="KxXHiPZeeXsI9hDlDG1h-1923" value="Організм" style="fontFamily=Helvetica;fontSize=14;" parent="1" vertex="1">
          <mxGeometry x="28" y="74" width="82" height="60" as="geometry" />
        </mxCell>
        <mxCell id="KxXHiPZeeXsI9hDlDG1h-1924" value="Імунітет" style="fontFamily=Helvetica;fontSize=14;" parent="1" vertex="1">
          <mxGeometry x="126" y="74" width="82" height="60" as="geometry" />
        </mxCell>
        <mxCell id="KxXHiPZeeXsI9hDlDG1h-1925" value="" style="edgeStyle=none;rounded=1;jumpStyle=none;html=1;shadow=0;labelBackgroundColor=none;startArrow=none;startFill=0;jettySize=auto;orthogonalLoop=1;strokeColor=#12AAB5;strokeWidth=3;fontFamily=Helvetica;fontSize=14;fontColor=#FFFFFF;spacing=5;fontStyle=1;fillColor=#b0e3e6;" parent="1" source="KxXHiPZeeXsI9hDlDG1h-1918" target="KxXHiPZeeXsI9hDlDG1h-1924" edge="1">
          <mxGeometry relative="1" as="geometry">
            <mxPoint x="344" y="270" as="sourcePoint" />
            <mxPoint x="-53" y="123" as="targetPoint" />
          </mxGeometry>
        </mxCell>
        <mxCell id="KxXHiPZeeXsI9hDlDG1h-1926" value="" style="edgeStyle=none;rounded=1;jumpStyle=none;html=1;shadow=0;labelBackgroundColor=none;startArrow=none;startFill=0;jettySize=auto;orthogonalLoop=1;strokeColor=#12AAB5;strokeWidth=3;fontFamily=Helvetica;fontSize=14;fontColor=#FFFFFF;spacing=5;fontStyle=1;fillColor=#b0e3e6;" parent="1" source="KxXHiPZeeXsI9hDlDG1h-1917" target="KxXHiPZeeXsI9hDlDG1h-1923" edge="1">
          <mxGeometry relative="1" as="geometry">
            <mxPoint x="516" y="280" as="sourcePoint" />
            <mxPoint x="541" y="280" as="targetPoint" />
          </mxGeometry>
        </mxCell>
        <mxCell id="KxXHiPZeeXsI9hDlDG1h-1929" value="Приходить" style="rounded=1;whiteSpace=wrap;html=1;shadow=0;fillColor=#f2f9fa;fontFamily=Helvetica;fontSize=14;fontColor=#000000;align=center;spacing=5;fontStyle=0;arcSize=7;perimeterSpacing=2;" parent="1" vertex="1">
          <mxGeometry x="512" y="910" width="82" height="60" as="geometry" />
        </mxCell>
        <mxCell id="KxXHiPZeeXsI9hDlDG1h-1930" value="Обробляється" style="rounded=1;whiteSpace=wrap;html=1;shadow=0;fillColor=#f2f9fa;fontFamily=Helvetica;fontSize=14;fontColor=#000000;align=center;spacing=5;fontStyle=0;arcSize=7;perimeterSpacing=2;" parent="1" vertex="1">
          <mxGeometry x="383" y="936" width="106" height="60" as="geometry" />
        </mxCell>
        <mxCell id="KxXHiPZeeXsI9hDlDG1h-1931" value="Виходить" style="rounded=1;whiteSpace=wrap;html=1;shadow=0;fillColor=#f2f9fa;fontFamily=Helvetica;fontSize=14;fontColor=#000000;align=center;spacing=5;fontStyle=0;arcSize=7;perimeterSpacing=2;" parent="1" vertex="1">
          <mxGeometry x="284" y="923" width="84" height="60" as="geometry" />
        </mxCell>
        <mxCell id="KxXHiPZeeXsI9hDlDG1h-1932" value="" style="edgeStyle=none;rounded=1;jumpStyle=none;html=1;shadow=0;labelBackgroundColor=none;startArrow=none;startFill=0;jettySize=auto;orthogonalLoop=1;strokeColor=#12AAB5;strokeWidth=3;fontFamily=Helvetica;fontSize=14;fontColor=#FFFFFF;spacing=5;fontStyle=1;fillColor=#b0e3e6;" parent="1" source="KxXHiPZeeXsI9hDlDG1h-1832" target="KxXHiPZeeXsI9hDlDG1h-1929" edge="1">
          <mxGeometry relative="1" as="geometry">
            <mxPoint x="274" y="778" as="sourcePoint" />
            <mxPoint x="519.8900000000001" y="899.5" as="targetPoint" />
          </mxGeometry>
        </mxCell>
        <mxCell id="KxXHiPZeeXsI9hDlDG1h-1933" value="" style="edgeStyle=none;rounded=1;jumpStyle=none;html=1;shadow=0;labelBackgroundColor=none;startArrow=none;startFill=0;jettySize=auto;orthogonalLoop=1;strokeColor=#12AAB5;strokeWidth=3;fontFamily=Helvetica;fontSize=14;fontColor=#FFFFFF;spacing=5;fontStyle=1;fillColor=#b0e3e6;exitX=0.177;exitY=0.953;exitDx=0;exitDy=0;exitPerimeter=0;" parent="1" source="KxXHiPZeeXsI9hDlDG1h-1832" target="KxXHiPZeeXsI9hDlDG1h-1930" edge="1">
          <mxGeometry relative="1" as="geometry">
            <mxPoint x="237.50000000000045" y="794" as="sourcePoint" />
            <mxPoint x="432.5825086139821" y="1168.5" as="targetPoint" />
          </mxGeometry>
        </mxCell>
        <mxCell id="KxXHiPZeeXsI9hDlDG1h-1934" value="" style="edgeStyle=none;rounded=1;jumpStyle=none;html=1;shadow=0;labelBackgroundColor=none;startArrow=none;startFill=0;jettySize=auto;orthogonalLoop=1;strokeColor=#12AAB5;strokeWidth=3;fontFamily=Helvetica;fontSize=14;fontColor=#FFFFFF;spacing=5;fontStyle=1;fillColor=#b0e3e6;exitX=0;exitY=0.5;exitDx=0;exitDy=0;" parent="1" source="KxXHiPZeeXsI9hDlDG1h-1832" target="KxXHiPZeeXsI9hDlDG1h-1931" edge="1">
          <mxGeometry relative="1" as="geometry">
            <mxPoint x="219.25" y="794" as="sourcePoint" />
            <mxPoint x="439.8899999999999" y="1229.6234567901233" as="targetPoint" />
          </mxGeometry>
        </mxCell>
        <mxCell id="KxXHiPZeeXsI9hDlDG1h-1935" value="Вірші" style="fontFamily=Helvetica;fontSize=14;" parent="1" vertex="1">
          <mxGeometry x="454" y="1036" width="82" height="60" as="geometry" />
        </mxCell>
        <mxCell id="KxXHiPZeeXsI9hDlDG1h-1936" value="" style="edgeStyle=none;rounded=1;jumpStyle=none;html=1;shadow=0;labelBackgroundColor=none;startArrow=none;startFill=0;jettySize=auto;orthogonalLoop=1;strokeColor=#12AAB5;strokeWidth=3;fontFamily=Helvetica;fontSize=14;fontColor=#FFFFFF;spacing=5;fontStyle=1;fillColor=#b0e3e6;" parent="1" source="KxXHiPZeeXsI9hDlDG1h-1929" edge="1">
          <mxGeometry relative="1" as="geometry">
            <mxPoint x="370.3900000000001" y="993.5" as="sourcePoint" />
            <mxPoint x="514" y="1030" as="targetPoint" />
          </mxGeometry>
        </mxCell>
        <mxCell id="KxXHiPZeeXsI9hDlDG1h-1937" value="Ритм" style="fontFamily=Helvetica;fontSize=14;" parent="1" vertex="1">
          <mxGeometry x="356" y="1036" width="82" height="60" as="geometry" />
        </mxCell>
        <mxCell id="KxXHiPZeeXsI9hDlDG1h-1938" value="Пісня" style="fontFamily=Helvetica;fontSize=14;" parent="1" vertex="1">
          <mxGeometry x="260" y="1036" width="82" height="60" as="geometry" />
        </mxCell>
        <mxCell id="KxXHiPZeeXsI9hDlDG1h-1939" value="" style="edgeStyle=none;rounded=1;jumpStyle=none;html=1;shadow=0;labelBackgroundColor=none;startArrow=none;startFill=0;jettySize=auto;orthogonalLoop=1;strokeColor=#12AAB5;strokeWidth=3;fontFamily=Helvetica;fontSize=14;fontColor=#FFFFFF;spacing=5;fontStyle=1;fillColor=#b0e3e6;entryX=0.5;entryY=0;entryDx=0;entryDy=0;" parent="1" source="KxXHiPZeeXsI9hDlDG1h-1931" target="KxXHiPZeeXsI9hDlDG1h-1938" edge="1">
          <mxGeometry relative="1" as="geometry">
            <mxPoint x="432.5" y="1257.5" as="sourcePoint" />
            <mxPoint x="355.5" y="1281.6234567901233" as="targetPoint" />
          </mxGeometry>
        </mxCell>
        <mxCell id="KxXHiPZeeXsI9hDlDG1h-1940" value="" style="edgeStyle=none;rounded=1;jumpStyle=none;html=1;shadow=0;labelBackgroundColor=none;startArrow=none;startFill=0;jettySize=auto;orthogonalLoop=1;strokeColor=#12AAB5;strokeWidth=3;fontFamily=Helvetica;fontSize=14;fontColor=#FFFFFF;spacing=5;fontStyle=1;fillColor=#b0e3e6;exitX=0.25;exitY=1;exitDx=0;exitDy=0;" parent="1" source="KxXHiPZeeXsI9hDlDG1h-1930" target="KxXHiPZeeXsI9hDlDG1h-1937" edge="1">
          <mxGeometry relative="1" as="geometry">
            <mxPoint x="386.96000000000004" y="998" as="sourcePoint" />
            <mxPoint x="544.8900000000001" y="1232.5" as="targetPoint" />
          </mxGeometry>
        </mxCell>
        <mxCell id="KxXHiPZeeXsI9hDlDG1h-1953" value="" style="edgeStyle=none;rounded=1;jumpStyle=none;html=1;shadow=0;labelBackgroundColor=none;startArrow=none;startFill=0;jettySize=auto;orthogonalLoop=1;strokeColor=#12AAB5;strokeWidth=3;fontFamily=Helvetica;fontSize=14;fontColor=#FFFFFF;spacing=5;fontStyle=1;fillColor=#b0e3e6;entryX=0.5;entryY=0;entryDx=0;entryDy=0;" parent="1" source="KxXHiPZeeXsI9hDlDG1h-1844" target="KxXHiPZeeXsI9hDlDG1h-1894" edge="1">
          <mxGeometry relative="1" as="geometry">
            <mxPoint x="107" y="368.9113924050632" as="sourcePoint" />
            <mxPoint x="71.00000000000045" y="368" as="targetPoint" />
          </mxGeometry>
        </mxCell>
        <mxCell id="KxXHiPZeeXsI9hDlDG1h-1954" value="" style="edgeStyle=none;rounded=1;jumpStyle=none;html=1;shadow=0;labelBackgroundColor=none;startArrow=none;startFill=0;jettySize=auto;orthogonalLoop=1;strokeColor=#12AAB5;strokeWidth=3;fontFamily=Helvetica;fontSize=14;fontColor=#FFFFFF;spacing=5;fontStyle=1;fillColor=#b0e3e6;entryX=0.5;entryY=0;entryDx=0;entryDy=0;exitX=0;exitY=0.5;exitDx=0;exitDy=0;" parent="1" source="KxXHiPZeeXsI9hDlDG1h-1844" target="KxXHiPZeeXsI9hDlDG1h-1910" edge="1">
          <mxGeometry relative="1" as="geometry">
            <mxPoint x="248.37142857142817" y="442.9999999999998" as="sourcePoint" />
            <mxPoint x="193" y="385.9999999999998" as="targetPoint" />
          </mxGeometry>
        </mxCell>
        <mxCell id="KxXHiPZeeXsI9hDlDG1h-1955" value="" style="edgeStyle=none;rounded=1;jumpStyle=none;html=1;shadow=0;labelBackgroundColor=none;startArrow=none;startFill=0;jettySize=auto;orthogonalLoop=1;strokeColor=#12AAB5;strokeWidth=3;fontFamily=Helvetica;fontSize=14;fontColor=#FFFFFF;spacing=5;fontStyle=1;fillColor=#b0e3e6;entryX=0.5;entryY=0;entryDx=0;entryDy=0;exitX=0;exitY=0.75;exitDx=0;exitDy=0;" parent="1" source="KxXHiPZeeXsI9hDlDG1h-1844" target="KxXHiPZeeXsI9hDlDG1h-1895" edge="1">
          <mxGeometry relative="1" as="geometry">
            <mxPoint x="249" y="485" as="sourcePoint" />
            <mxPoint x="203" y="395.9999999999998" as="targetPoint" />
          </mxGeometry>
        </mxCell>
        <mxCell id="KxXHiPZeeXsI9hDlDG1h-1956" value="" style="edgeStyle=none;rounded=1;jumpStyle=none;html=1;shadow=0;labelBackgroundColor=none;startArrow=none;startFill=0;jettySize=auto;orthogonalLoop=1;strokeColor=#12AAB5;strokeWidth=3;fontFamily=Helvetica;fontSize=14;fontColor=#FFFFFF;spacing=5;fontStyle=1;fillColor=#b0e3e6;exitX=0;exitY=0.25;exitDx=0;exitDy=0;" parent="1" source="KxXHiPZeeXsI9hDlDG1h-1846" target="KxXHiPZeeXsI9hDlDG1h-1902" edge="1">
          <mxGeometry relative="1" as="geometry">
            <mxPoint x="257" y="623" as="sourcePoint" />
            <mxPoint x="213" y="405.9999999999998" as="targetPoint" />
          </mxGeometry>
        </mxCell>
        <mxCell id="KxXHiPZeeXsI9hDlDG1h-1957" value="" style="edgeStyle=none;rounded=1;jumpStyle=none;html=1;shadow=0;labelBackgroundColor=none;startArrow=none;startFill=0;jettySize=auto;orthogonalLoop=1;strokeColor=#12AAB5;strokeWidth=3;fontFamily=Helvetica;fontSize=14;fontColor=#FFFFFF;spacing=5;fontStyle=1;fillColor=#b0e3e6;entryX=0.5;entryY=0;entryDx=0;entryDy=0;exitX=0;exitY=0.75;exitDx=0;exitDy=0;" parent="1" source="KxXHiPZeeXsI9hDlDG1h-1846" target="KxXHiPZeeXsI9hDlDG1h-1911" edge="1">
          <mxGeometry relative="1" as="geometry">
            <mxPoint x="278.37142857142817" y="472.9999999999998" as="sourcePoint" />
            <mxPoint x="223" y="415.9999999999998" as="targetPoint" />
          </mxGeometry>
        </mxCell>
        <mxCell id="KxXHiPZeeXsI9hDlDG1h-1958" value="" style="edgeStyle=none;rounded=1;jumpStyle=none;html=1;shadow=0;labelBackgroundColor=none;startArrow=none;startFill=0;jettySize=auto;orthogonalLoop=1;strokeColor=#12AAB5;strokeWidth=3;fontFamily=Helvetica;fontSize=14;fontColor=#FFFFFF;spacing=5;fontStyle=1;fillColor=#b0e3e6;entryX=0.5;entryY=0;entryDx=0;entryDy=0;exitX=0.25;exitY=1;exitDx=0;exitDy=0;" parent="1" source="KxXHiPZeeXsI9hDlDG1h-1846" target="KxXHiPZeeXsI9hDlDG1h-1903" edge="1">
          <mxGeometry relative="1" as="geometry">
            <mxPoint x="257" y="676" as="sourcePoint" />
            <mxPoint x="233" y="425.9999999999998" as="targetPoint" />
          </mxGeometry>
        </mxCell>
        <mxCell id="KxXHiPZeeXsI9hDlDG1h-1960" value="Приходить" style="rounded=1;whiteSpace=wrap;html=1;shadow=0;fillColor=#f2f9fa;fontFamily=Helvetica;fontSize=14;fontColor=#000000;align=center;spacing=5;fontStyle=0;arcSize=7;perimeterSpacing=2;" parent="1" vertex="1">
          <mxGeometry x="1319.5" y="940" width="82" height="60" as="geometry" />
        </mxCell>
        <mxCell id="KxXHiPZeeXsI9hDlDG1h-1961" value="Обробляється" style="rounded=1;whiteSpace=wrap;html=1;shadow=0;fillColor=#f2f9fa;fontFamily=Helvetica;fontSize=14;fontColor=#000000;align=center;spacing=5;fontStyle=0;arcSize=7;perimeterSpacing=2;" parent="1" vertex="1">
          <mxGeometry x="1195" y="936" width="106" height="60" as="geometry" />
        </mxCell>
        <mxCell id="KxXHiPZeeXsI9hDlDG1h-1962" value="Виходить" style="rounded=1;whiteSpace=wrap;html=1;shadow=0;fillColor=#f2f9fa;fontFamily=Helvetica;fontSize=14;fontColor=#000000;align=center;spacing=5;fontStyle=0;arcSize=7;perimeterSpacing=2;" parent="1" vertex="1">
          <mxGeometry x="1096" y="910" width="84" height="60" as="geometry" />
        </mxCell>
        <mxCell id="KxXHiPZeeXsI9hDlDG1h-1963" value="" style="edgeStyle=none;rounded=1;jumpStyle=none;html=1;shadow=0;labelBackgroundColor=none;startArrow=none;startFill=0;jettySize=auto;orthogonalLoop=1;strokeColor=#12AAB5;strokeWidth=3;fontFamily=Helvetica;fontSize=14;fontColor=#FFFFFF;spacing=5;fontStyle=1;fillColor=#b0e3e6;exitX=1;exitY=0.75;exitDx=0;exitDy=0;entryX=0.5;entryY=0;entryDx=0;entryDy=0;" parent="1" source="KxXHiPZeeXsI9hDlDG1h-1838" target="KxXHiPZeeXsI9hDlDG1h-1960" edge="1">
          <mxGeometry relative="1" as="geometry">
            <mxPoint x="1233.4999999999995" y="928" as="sourcePoint" />
            <mxPoint x="1479.39" y="1049.5" as="targetPoint" />
          </mxGeometry>
        </mxCell>
        <mxCell id="KxXHiPZeeXsI9hDlDG1h-1964" value="" style="edgeStyle=none;rounded=1;jumpStyle=none;html=1;shadow=0;labelBackgroundColor=none;startArrow=none;startFill=0;jettySize=auto;orthogonalLoop=1;strokeColor=#12AAB5;strokeWidth=3;fontFamily=Helvetica;fontSize=14;fontColor=#FFFFFF;spacing=5;fontStyle=1;fillColor=#b0e3e6;exitX=0.75;exitY=1;exitDx=0;exitDy=0;entryX=0.5;entryY=0;entryDx=0;entryDy=0;" parent="1" source="KxXHiPZeeXsI9hDlDG1h-1838" target="KxXHiPZeeXsI9hDlDG1h-1961" edge="1">
          <mxGeometry relative="1" as="geometry">
            <mxPoint x="1197" y="943.9999999999998" as="sourcePoint" />
            <mxPoint x="1392.082508613982" y="1318.5" as="targetPoint" />
          </mxGeometry>
        </mxCell>
        <mxCell id="KxXHiPZeeXsI9hDlDG1h-1965" value="" style="edgeStyle=none;rounded=1;jumpStyle=none;html=1;shadow=0;labelBackgroundColor=none;startArrow=none;startFill=0;jettySize=auto;orthogonalLoop=1;strokeColor=#12AAB5;strokeWidth=3;fontFamily=Helvetica;fontSize=14;fontColor=#FFFFFF;spacing=5;fontStyle=1;fillColor=#b0e3e6;exitX=0.5;exitY=1;exitDx=0;exitDy=0;" parent="1" source="KxXHiPZeeXsI9hDlDG1h-1838" target="KxXHiPZeeXsI9hDlDG1h-1962" edge="1">
          <mxGeometry relative="1" as="geometry">
            <mxPoint x="1178.75" y="943.9999999999998" as="sourcePoint" />
            <mxPoint x="1399.3899999999999" y="1379.6234567901233" as="targetPoint" />
          </mxGeometry>
        </mxCell>
        <mxCell id="KxXHiPZeeXsI9hDlDG1h-1966" value="Музика" style="fontFamily=Helvetica;fontSize=14;" parent="1" vertex="1">
          <mxGeometry x="1347" y="1036" width="82" height="60" as="geometry" />
        </mxCell>
        <mxCell id="KxXHiPZeeXsI9hDlDG1h-1967" value="" style="edgeStyle=none;rounded=1;jumpStyle=none;html=1;shadow=0;labelBackgroundColor=none;startArrow=none;startFill=0;jettySize=auto;orthogonalLoop=1;strokeColor=#12AAB5;strokeWidth=3;fontFamily=Helvetica;fontSize=14;fontColor=#FFFFFF;spacing=5;fontStyle=1;fillColor=#b0e3e6;entryX=0.25;entryY=0;entryDx=0;entryDy=0;" parent="1" source="KxXHiPZeeXsI9hDlDG1h-1960" target="KxXHiPZeeXsI9hDlDG1h-1966" edge="1">
          <mxGeometry relative="1" as="geometry">
            <mxPoint x="1329.89" y="1143.5" as="sourcePoint" />
            <mxPoint x="1321.39" y="1091.5" as="targetPoint" />
          </mxGeometry>
        </mxCell>
        <mxCell id="KxXHiPZeeXsI9hDlDG1h-1968" value="Під час&#xa;тренувань" style="fontFamily=Helvetica;fontSize=14;" parent="1" vertex="1">
          <mxGeometry x="1249" y="1036" width="82" height="60" as="geometry" />
        </mxCell>
        <mxCell id="KxXHiPZeeXsI9hDlDG1h-1969" value="Вокал" style="fontFamily=Helvetica;fontSize=14;" parent="1" vertex="1">
          <mxGeometry x="1151.5" y="1036" width="82" height="60" as="geometry" />
        </mxCell>
        <mxCell id="KxXHiPZeeXsI9hDlDG1h-1970" value="" style="edgeStyle=none;rounded=1;jumpStyle=none;html=1;shadow=0;labelBackgroundColor=none;startArrow=none;startFill=0;jettySize=auto;orthogonalLoop=1;strokeColor=#12AAB5;strokeWidth=3;fontFamily=Helvetica;fontSize=14;fontColor=#FFFFFF;spacing=5;fontStyle=1;fillColor=#b0e3e6;entryX=0.5;entryY=0;entryDx=0;entryDy=0;" parent="1" source="KxXHiPZeeXsI9hDlDG1h-1962" target="KxXHiPZeeXsI9hDlDG1h-1969" edge="1">
          <mxGeometry relative="1" as="geometry">
            <mxPoint x="1392" y="1407.5" as="sourcePoint" />
            <mxPoint x="1315" y="1431.6234567901233" as="targetPoint" />
          </mxGeometry>
        </mxCell>
        <mxCell id="KxXHiPZeeXsI9hDlDG1h-1971" value="" style="edgeStyle=none;rounded=1;jumpStyle=none;html=1;shadow=0;labelBackgroundColor=none;startArrow=none;startFill=0;jettySize=auto;orthogonalLoop=1;strokeColor=#12AAB5;strokeWidth=3;fontFamily=Helvetica;fontSize=14;fontColor=#FFFFFF;spacing=5;fontStyle=1;fillColor=#b0e3e6;" parent="1" source="KxXHiPZeeXsI9hDlDG1h-1961" target="KxXHiPZeeXsI9hDlDG1h-1968" edge="1">
          <mxGeometry relative="1" as="geometry">
            <mxPoint x="1494.39" y="1382.5" as="sourcePoint" />
            <mxPoint x="1519.39" y="1382.5" as="targetPoint" />
          </mxGeometry>
        </mxCell>
        <mxCell id="KxXHiPZeeXsI9hDlDG1h-1973" value="Приходить" style="rounded=1;whiteSpace=wrap;html=1;shadow=0;fillColor=#f2f9fa;fontFamily=Helvetica;fontSize=14;fontColor=#000000;align=center;spacing=5;fontStyle=0;arcSize=7;perimeterSpacing=2;" parent="1" vertex="1">
          <mxGeometry x="1014" y="832" width="82" height="60" as="geometry" />
        </mxCell>
        <mxCell id="KxXHiPZeeXsI9hDlDG1h-1974" value="Обробляється" style="rounded=1;whiteSpace=wrap;html=1;shadow=0;fillColor=#f2f9fa;fontFamily=Helvetica;fontSize=14;fontColor=#000000;align=center;spacing=5;fontStyle=0;arcSize=7;perimeterSpacing=2;" parent="1" vertex="1">
          <mxGeometry x="942" y="923" width="106" height="60" as="geometry" />
        </mxCell>
        <mxCell id="KxXHiPZeeXsI9hDlDG1h-1975" value="Виходить" style="rounded=1;whiteSpace=wrap;html=1;shadow=0;fillColor=#f2f9fa;fontFamily=Helvetica;fontSize=14;fontColor=#000000;align=center;spacing=5;fontStyle=0;arcSize=7;perimeterSpacing=2;" parent="1" vertex="1">
          <mxGeometry x="847" y="923" width="84" height="60" as="geometry" />
        </mxCell>
        <mxCell id="KxXHiPZeeXsI9hDlDG1h-1976" value="" style="edgeStyle=none;rounded=1;jumpStyle=none;html=1;shadow=0;labelBackgroundColor=none;startArrow=none;startFill=0;jettySize=auto;orthogonalLoop=1;strokeColor=#12AAB5;strokeWidth=3;fontFamily=Helvetica;fontSize=14;fontColor=#FFFFFF;spacing=5;fontStyle=1;fillColor=#b0e3e6;exitX=1;exitY=0.5;exitDx=0;exitDy=0;" parent="1" source="KxXHiPZeeXsI9hDlDG1h-1836" target="KxXHiPZeeXsI9hDlDG1h-1973" edge="1">
          <mxGeometry relative="1" as="geometry">
            <mxPoint x="789" y="850.9999999999998" as="sourcePoint" />
            <mxPoint x="1002.3900000000001" y="1083.5" as="targetPoint" />
          </mxGeometry>
        </mxCell>
        <mxCell id="KxXHiPZeeXsI9hDlDG1h-1977" value="" style="edgeStyle=none;rounded=1;jumpStyle=none;html=1;shadow=0;labelBackgroundColor=none;startArrow=none;startFill=0;jettySize=auto;orthogonalLoop=1;strokeColor=#12AAB5;strokeWidth=3;fontFamily=Helvetica;fontSize=14;fontColor=#FFFFFF;spacing=5;fontStyle=1;fillColor=#b0e3e6;exitX=0.867;exitY=0.984;exitDx=0;exitDy=0;exitPerimeter=0;" parent="1" source="KxXHiPZeeXsI9hDlDG1h-1836" target="KxXHiPZeeXsI9hDlDG1h-1974" edge="1">
          <mxGeometry relative="1" as="geometry">
            <mxPoint x="769.25" y="866.9999999999998" as="sourcePoint" />
            <mxPoint x="915.0825086139821" y="1352.5" as="targetPoint" />
          </mxGeometry>
        </mxCell>
        <mxCell id="KxXHiPZeeXsI9hDlDG1h-1978" value="" style="edgeStyle=none;rounded=1;jumpStyle=none;html=1;shadow=0;labelBackgroundColor=none;startArrow=none;startFill=0;jettySize=auto;orthogonalLoop=1;strokeColor=#12AAB5;strokeWidth=3;fontFamily=Helvetica;fontSize=14;fontColor=#FFFFFF;spacing=5;fontStyle=1;fillColor=#b0e3e6;exitX=0.25;exitY=1;exitDx=0;exitDy=0;" parent="1" source="KxXHiPZeeXsI9hDlDG1h-1836" target="KxXHiPZeeXsI9hDlDG1h-1975" edge="1">
          <mxGeometry relative="1" as="geometry">
            <mxPoint x="749.5" y="866.9999999999998" as="sourcePoint" />
            <mxPoint x="922.3899999999999" y="1413.6234567901233" as="targetPoint" />
          </mxGeometry>
        </mxCell>
        <mxCell id="KxXHiPZeeXsI9hDlDG1h-1979" value="Вільний час" style="fontFamily=Helvetica;fontSize=14;" parent="1" vertex="1">
          <mxGeometry x="1050" y="1036" width="82" height="60" as="geometry" />
        </mxCell>
        <mxCell id="KxXHiPZeeXsI9hDlDG1h-1980" value="" style="edgeStyle=none;rounded=1;jumpStyle=none;html=1;shadow=0;labelBackgroundColor=none;startArrow=none;startFill=0;jettySize=auto;orthogonalLoop=1;strokeColor=#12AAB5;strokeWidth=3;fontFamily=Helvetica;fontSize=14;fontColor=#FFFFFF;spacing=5;fontStyle=1;fillColor=#b0e3e6;entryX=0.5;entryY=0;entryDx=0;entryDy=0;" parent="1" source="KxXHiPZeeXsI9hDlDG1h-1973" target="KxXHiPZeeXsI9hDlDG1h-1979" edge="1">
          <mxGeometry relative="1" as="geometry">
            <mxPoint x="852.8900000000001" y="1177.5" as="sourcePoint" />
            <mxPoint x="844.3900000000001" y="1125.5" as="targetPoint" />
          </mxGeometry>
        </mxCell>
        <mxCell id="KxXHiPZeeXsI9hDlDG1h-1981" value="Під час &#xa;співу" style="fontFamily=Helvetica;fontSize=14;" parent="1" vertex="1">
          <mxGeometry x="954" y="1036" width="82" height="60" as="geometry" />
        </mxCell>
        <mxCell id="KxXHiPZeeXsI9hDlDG1h-1982" value="Під час &#xa;співу" style="fontFamily=Helvetica;fontSize=14;" parent="1" vertex="1">
          <mxGeometry x="849" y="1036" width="82" height="60" as="geometry" />
        </mxCell>
        <mxCell id="KxXHiPZeeXsI9hDlDG1h-1983" value="" style="edgeStyle=none;rounded=1;jumpStyle=none;html=1;shadow=0;labelBackgroundColor=none;startArrow=none;startFill=0;jettySize=auto;orthogonalLoop=1;strokeColor=#12AAB5;strokeWidth=3;fontFamily=Helvetica;fontSize=14;fontColor=#FFFFFF;spacing=5;fontStyle=1;fillColor=#b0e3e6;entryX=0.5;entryY=0;entryDx=0;entryDy=0;" parent="1" source="KxXHiPZeeXsI9hDlDG1h-1975" target="KxXHiPZeeXsI9hDlDG1h-1982" edge="1">
          <mxGeometry relative="1" as="geometry">
            <mxPoint x="915" y="1441.5" as="sourcePoint" />
            <mxPoint x="838" y="1465.6234567901233" as="targetPoint" />
          </mxGeometry>
        </mxCell>
        <mxCell id="KxXHiPZeeXsI9hDlDG1h-1984" value="" style="edgeStyle=none;rounded=1;jumpStyle=none;html=1;shadow=0;labelBackgroundColor=none;startArrow=none;startFill=0;jettySize=auto;orthogonalLoop=1;strokeColor=#12AAB5;strokeWidth=3;fontFamily=Helvetica;fontSize=14;fontColor=#FFFFFF;spacing=5;fontStyle=1;fillColor=#b0e3e6;" parent="1" source="KxXHiPZeeXsI9hDlDG1h-1974" target="KxXHiPZeeXsI9hDlDG1h-1981" edge="1">
          <mxGeometry relative="1" as="geometry">
            <mxPoint x="1017.3900000000001" y="1416.5" as="sourcePoint" />
            <mxPoint x="1042.39" y="1416.5" as="targetPoint" />
          </mxGeometry>
        </mxCell>
        <mxCell id="KxXHiPZeeXsI9hDlDG1h-1985" value="Приходить" style="rounded=1;whiteSpace=wrap;html=1;shadow=0;fillColor=#f2f9fa;fontFamily=Helvetica;fontSize=14;fontColor=#000000;align=center;spacing=5;fontStyle=0;arcSize=7;perimeterSpacing=2;" parent="1" vertex="1">
          <mxGeometry x="746" y="923" width="82" height="60" as="geometry" />
        </mxCell>
        <mxCell id="KxXHiPZeeXsI9hDlDG1h-1986" value="Обробляється" style="rounded=1;whiteSpace=wrap;html=1;shadow=0;fillColor=#f2f9fa;fontFamily=Helvetica;fontSize=14;fontColor=#000000;align=center;spacing=5;fontStyle=0;arcSize=7;perimeterSpacing=2;" parent="1" vertex="1">
          <mxGeometry x="634" y="923" width="106" height="60" as="geometry" />
        </mxCell>
        <mxCell id="Hs87fQ7yaVksXaa9Ou_k-1779" style="edgeStyle=orthogonalEdgeStyle;rounded=0;orthogonalLoop=1;jettySize=auto;html=1;fontFamily=Verdana;fontSize=13;fontColor=#FFFFFF;" parent="1" source="KxXHiPZeeXsI9hDlDG1h-1987" edge="1">
          <mxGeometry relative="1" as="geometry">
            <mxPoint x="550" y="862" as="targetPoint" />
          </mxGeometry>
        </mxCell>
        <mxCell id="KxXHiPZeeXsI9hDlDG1h-1987" value="Виходить" style="rounded=1;whiteSpace=wrap;html=1;shadow=0;fillColor=#f2f9fa;fontFamily=Helvetica;fontSize=14;fontColor=#000000;align=center;spacing=5;fontStyle=0;arcSize=7;perimeterSpacing=2;" parent="1" vertex="1">
          <mxGeometry x="594" y="832" width="84" height="60" as="geometry" />
        </mxCell>
        <mxCell id="KxXHiPZeeXsI9hDlDG1h-1988" value="" style="edgeStyle=none;rounded=1;jumpStyle=none;html=1;shadow=0;labelBackgroundColor=none;startArrow=none;startFill=0;jettySize=auto;orthogonalLoop=1;strokeColor=#12AAB5;strokeWidth=3;fontFamily=Helvetica;fontSize=14;fontColor=#FFFFFF;spacing=5;fontStyle=1;fillColor=#b0e3e6;exitX=0.5;exitY=1;exitDx=0;exitDy=0;" parent="1" source="KxXHiPZeeXsI9hDlDG1h-1834" target="KxXHiPZeeXsI9hDlDG1h-1985" edge="1">
          <mxGeometry relative="1" as="geometry">
            <mxPoint x="593.75" y="832" as="sourcePoint" />
            <mxPoint x="672.3900000000001" y="1089.5" as="targetPoint" />
          </mxGeometry>
        </mxCell>
        <mxCell id="KxXHiPZeeXsI9hDlDG1h-1989" value="" style="edgeStyle=none;rounded=1;jumpStyle=none;html=1;shadow=0;labelBackgroundColor=none;startArrow=none;startFill=0;jettySize=auto;orthogonalLoop=1;strokeColor=#12AAB5;strokeWidth=3;fontFamily=Helvetica;fontSize=14;fontColor=#FFFFFF;spacing=5;fontStyle=1;fillColor=#b0e3e6;exitX=0;exitY=1;exitDx=0;exitDy=0;" parent="1" source="KxXHiPZeeXsI9hDlDG1h-1834" target="KxXHiPZeeXsI9hDlDG1h-1986" edge="1">
          <mxGeometry relative="1" as="geometry">
            <mxPoint x="574" y="832" as="sourcePoint" />
            <mxPoint x="585.0825086139821" y="1358.5" as="targetPoint" />
          </mxGeometry>
        </mxCell>
        <mxCell id="KxXHiPZeeXsI9hDlDG1h-1990" value="" style="edgeStyle=none;rounded=1;jumpStyle=none;html=1;shadow=0;labelBackgroundColor=none;startArrow=none;startFill=0;jettySize=auto;orthogonalLoop=1;strokeColor=#12AAB5;strokeWidth=3;fontFamily=Helvetica;fontSize=14;fontColor=#FFFFFF;spacing=5;fontStyle=1;fillColor=#b0e3e6;exitX=0;exitY=0.5;exitDx=0;exitDy=0;" parent="1" source="KxXHiPZeeXsI9hDlDG1h-1834" target="KxXHiPZeeXsI9hDlDG1h-1987" edge="1">
          <mxGeometry relative="1" as="geometry">
            <mxPoint x="534.5" y="832" as="sourcePoint" />
            <mxPoint x="592.3899999999999" y="1419.6234567901233" as="targetPoint" />
          </mxGeometry>
        </mxCell>
        <mxCell id="KxXHiPZeeXsI9hDlDG1h-1991" value="Вдома" style="fontFamily=Helvetica;fontSize=14;" parent="1" vertex="1">
          <mxGeometry x="746" y="1036" width="82" height="60" as="geometry" />
        </mxCell>
        <mxCell id="KxXHiPZeeXsI9hDlDG1h-1992" value="" style="edgeStyle=none;rounded=1;jumpStyle=none;html=1;shadow=0;labelBackgroundColor=none;startArrow=none;startFill=0;jettySize=auto;orthogonalLoop=1;strokeColor=#12AAB5;strokeWidth=3;fontFamily=Helvetica;fontSize=14;fontColor=#FFFFFF;spacing=5;fontStyle=1;fillColor=#b0e3e6;entryX=0.5;entryY=0;entryDx=0;entryDy=0;" parent="1" source="KxXHiPZeeXsI9hDlDG1h-1985" target="KxXHiPZeeXsI9hDlDG1h-1991" edge="1">
          <mxGeometry relative="1" as="geometry">
            <mxPoint x="522.8900000000001" y="1183.5" as="sourcePoint" />
            <mxPoint x="514.3900000000001" y="1131.5" as="targetPoint" />
          </mxGeometry>
        </mxCell>
        <mxCell id="KxXHiPZeeXsI9hDlDG1h-1993" value="Комп&#39;ютер" style="fontFamily=Helvetica;fontSize=14;" parent="1" vertex="1">
          <mxGeometry x="647" y="1036" width="82" height="60" as="geometry" />
        </mxCell>
        <mxCell id="KxXHiPZeeXsI9hDlDG1h-1994" value="В студії" style="fontFamily=Helvetica;fontSize=14;" parent="1" vertex="1">
          <mxGeometry x="552" y="1036" width="82" height="60" as="geometry" />
        </mxCell>
        <mxCell id="KxXHiPZeeXsI9hDlDG1h-1995" value="" style="edgeStyle=none;rounded=1;jumpStyle=none;html=1;shadow=0;labelBackgroundColor=none;startArrow=none;startFill=0;jettySize=auto;orthogonalLoop=1;strokeColor=#12AAB5;strokeWidth=3;fontFamily=Helvetica;fontSize=14;fontColor=#FFFFFF;spacing=5;fontStyle=1;fillColor=#b0e3e6;entryX=0.5;entryY=0;entryDx=0;entryDy=0;" parent="1" source="KxXHiPZeeXsI9hDlDG1h-1987" target="KxXHiPZeeXsI9hDlDG1h-1994" edge="1">
          <mxGeometry relative="1" as="geometry">
            <mxPoint x="585" y="1447.5" as="sourcePoint" />
            <mxPoint x="508" y="1471.6234567901233" as="targetPoint" />
          </mxGeometry>
        </mxCell>
        <mxCell id="KxXHiPZeeXsI9hDlDG1h-1996" value="" style="edgeStyle=none;rounded=1;jumpStyle=none;html=1;shadow=0;labelBackgroundColor=none;startArrow=none;startFill=0;jettySize=auto;orthogonalLoop=1;strokeColor=#12AAB5;strokeWidth=3;fontFamily=Helvetica;fontSize=14;fontColor=#FFFFFF;spacing=5;fontStyle=1;fillColor=#b0e3e6;" parent="1" source="KxXHiPZeeXsI9hDlDG1h-1986" target="KxXHiPZeeXsI9hDlDG1h-1993" edge="1">
          <mxGeometry relative="1" as="geometry">
            <mxPoint x="687.3900000000001" y="1422.5" as="sourcePoint" />
            <mxPoint x="712.3900000000001" y="1422.5" as="targetPoint" />
          </mxGeometry>
        </mxCell>
        <mxCell id="KxXHiPZeeXsI9hDlDG1h-1997" value="Виходить" style="rounded=1;whiteSpace=wrap;html=1;shadow=0;fillColor=#fae8e6;fontFamily=Helvetica;fontSize=14;fontColor=#000000;align=center;spacing=5;fontStyle=0;arcSize=7;perimeterSpacing=2;direction=south;" parent="1" vertex="1">
          <mxGeometry x="123" y="817.5" width="82" height="60" as="geometry" />
        </mxCell>
        <mxCell id="KxXHiPZeeXsI9hDlDG1h-1998" value="Приходить" style="rounded=1;whiteSpace=wrap;html=1;shadow=0;fillColor=#fae8e6;fontFamily=Helvetica;fontSize=14;fontColor=#000000;align=center;spacing=5;fontStyle=0;arcSize=7;perimeterSpacing=2;direction=south;" parent="1" vertex="1">
          <mxGeometry x="176" y="940" width="84" height="60" as="geometry" />
        </mxCell>
        <mxCell id="KxXHiPZeeXsI9hDlDG1h-1999" value="Здоров&#39;я" style="fontFamily=Helvetica;fontSize=14;" parent="1" vertex="1">
          <mxGeometry x="4" y="820" width="82" height="60" as="geometry" />
        </mxCell>
        <mxCell id="KxXHiPZeeXsI9hDlDG1h-2000" value="" style="edgeStyle=none;rounded=1;jumpStyle=none;html=1;shadow=0;labelBackgroundColor=none;startArrow=none;startFill=0;jettySize=auto;orthogonalLoop=1;strokeColor=#12AAB5;strokeWidth=3;fontFamily=Helvetica;fontSize=14;fontColor=#FFFFFF;spacing=5;fontStyle=1;fillColor=#b0e3e6;entryX=1;entryY=0.5;entryDx=0;entryDy=0;" parent="1" source="KxXHiPZeeXsI9hDlDG1h-1997" target="KxXHiPZeeXsI9hDlDG1h-1999" edge="1">
          <mxGeometry relative="1" as="geometry">
            <mxPoint x="124.5" y="887.5" as="sourcePoint" />
            <mxPoint x="116" y="835.5" as="targetPoint" />
          </mxGeometry>
        </mxCell>
        <mxCell id="KxXHiPZeeXsI9hDlDG1h-2001" value="Способом&#xa;життя" style="fontFamily=Helvetica;fontSize=14;" parent="1" vertex="1">
          <mxGeometry x="66" y="1036" width="82" height="60" as="geometry" />
        </mxCell>
        <mxCell id="KxXHiPZeeXsI9hDlDG1h-2002" value="Під час&#xa; життя" style="fontFamily=Helvetica;fontSize=14;" parent="1" vertex="1">
          <mxGeometry x="165" y="1036" width="82" height="60" as="geometry" />
        </mxCell>
        <mxCell id="KxXHiPZeeXsI9hDlDG1h-2003" value="" style="edgeStyle=none;rounded=1;jumpStyle=none;html=1;shadow=0;labelBackgroundColor=none;startArrow=none;startFill=0;jettySize=auto;orthogonalLoop=1;strokeColor=#12AAB5;strokeWidth=3;fontFamily=Helvetica;fontSize=14;fontColor=#FFFFFF;spacing=5;fontStyle=1;fillColor=#b0e3e6;entryX=0.5;entryY=0;entryDx=0;entryDy=0;exitX=1;exitY=0.5;exitDx=0;exitDy=0;" parent="1" source="KxXHiPZeeXsI9hDlDG1h-1998" target="KxXHiPZeeXsI9hDlDG1h-2002" edge="1">
          <mxGeometry relative="1" as="geometry">
            <mxPoint x="176" y="1008" as="sourcePoint" />
            <mxPoint x="181" y="1046" as="targetPoint" />
          </mxGeometry>
        </mxCell>
        <mxCell id="KxXHiPZeeXsI9hDlDG1h-2004" value="" style="edgeStyle=none;rounded=1;jumpStyle=none;html=1;shadow=0;labelBackgroundColor=none;startArrow=none;startFill=0;jettySize=auto;orthogonalLoop=1;strokeColor=#12AAB5;strokeWidth=3;fontFamily=Helvetica;fontSize=14;fontColor=#FFFFFF;spacing=5;fontStyle=1;fillColor=#b0e3e6;entryX=0.5;entryY=0;entryDx=0;entryDy=0;exitX=1;exitY=0.5;exitDx=0;exitDy=0;" parent="1" source="KxXHiPZeeXsI9hDlDG1h-2005" target="KxXHiPZeeXsI9hDlDG1h-2001" edge="1">
          <mxGeometry relative="1" as="geometry">
            <mxPoint x="-76.99999999999955" y="910.0178571428571" as="sourcePoint" />
            <mxPoint x="76" y="1107.5" as="targetPoint" />
          </mxGeometry>
        </mxCell>
        <mxCell id="KxXHiPZeeXsI9hDlDG1h-2005" value="Обробляється" style="rounded=1;whiteSpace=wrap;html=1;shadow=0;fillColor=#fae8e6;fontFamily=Helvetica;fontSize=14;fontColor=#000000;align=center;spacing=5;fontStyle=0;arcSize=7;perimeterSpacing=2;direction=south;" parent="1" vertex="1">
          <mxGeometry x="54" y="923" width="106" height="60" as="geometry" />
        </mxCell>
        <mxCell id="KxXHiPZeeXsI9hDlDG1h-2006" value="" style="edgeStyle=none;rounded=1;jumpStyle=none;html=1;shadow=0;labelBackgroundColor=none;startArrow=none;startFill=0;jettySize=auto;orthogonalLoop=1;strokeColor=#12AAB5;strokeWidth=3;fontFamily=Helvetica;fontSize=14;fontColor=#FFFFFF;spacing=5;fontStyle=1;fillColor=#b0e3e6;exitX=0;exitY=0.5;exitDx=0;exitDy=0;" parent="1" source="KxXHiPZeeXsI9hDlDG1h-1848" target="KxXHiPZeeXsI9hDlDG1h-1997" edge="1">
          <mxGeometry relative="1" as="geometry">
            <mxPoint x="233" y="836.8628571428571" as="sourcePoint" />
            <mxPoint x="213" y="642.9999999999998" as="targetPoint" />
          </mxGeometry>
        </mxCell>
        <mxCell id="KxXHiPZeeXsI9hDlDG1h-2007" value="" style="edgeStyle=none;rounded=1;jumpStyle=none;html=1;shadow=0;labelBackgroundColor=none;startArrow=none;startFill=0;jettySize=auto;orthogonalLoop=1;strokeColor=#12AAB5;strokeWidth=3;fontFamily=Helvetica;fontSize=14;fontColor=#FFFFFF;spacing=5;fontStyle=1;fillColor=#b0e3e6;" parent="1" source="KxXHiPZeeXsI9hDlDG1h-1848" target="KxXHiPZeeXsI9hDlDG1h-2005" edge="1">
          <mxGeometry relative="1" as="geometry">
            <mxPoint x="182" y="871" as="sourcePoint" />
            <mxPoint x="172" y="652.9999999999998" as="targetPoint" />
          </mxGeometry>
        </mxCell>
        <mxCell id="KxXHiPZeeXsI9hDlDG1h-2008" value="" style="edgeStyle=none;rounded=1;jumpStyle=none;html=1;shadow=0;labelBackgroundColor=none;startArrow=none;startFill=0;jettySize=auto;orthogonalLoop=1;strokeColor=#12AAB5;strokeWidth=3;fontFamily=Helvetica;fontSize=14;fontColor=#FFFFFF;spacing=5;fontStyle=1;fillColor=#b0e3e6;exitX=0.5;exitY=1;exitDx=0;exitDy=0;entryX=0;entryY=0.5;entryDx=0;entryDy=0;" parent="1" source="KxXHiPZeeXsI9hDlDG1h-1848" target="KxXHiPZeeXsI9hDlDG1h-1998" edge="1">
          <mxGeometry relative="1" as="geometry">
            <mxPoint x="215.5" y="871" as="sourcePoint" />
            <mxPoint x="183" y="943" as="targetPoint" />
          </mxGeometry>
        </mxCell>
        <mxCell id="KxXHiPZeeXsI9hDlDG1h-2009" value="" style="edgeStyle=none;rounded=1;jumpStyle=none;html=1;shadow=0;labelBackgroundColor=none;startArrow=none;startFill=0;jettySize=auto;orthogonalLoop=1;strokeColor=#12AAB5;strokeWidth=3;fontFamily=Helvetica;fontSize=14;fontColor=#FFFFFF;spacing=5;fontStyle=1;fillColor=#b0e3e6;exitX=0.5;exitY=0;exitDx=0;exitDy=0;entryX=1;entryY=0;entryDx=0;entryDy=0;" parent="1" source="KxXHiPZeeXsI9hDlDG1h-1842" target="KxXHiPZeeXsI9hDlDG1h-1918" edge="1">
          <mxGeometry relative="1" as="geometry">
            <mxPoint x="239.99999999999955" y="303" as="sourcePoint" />
            <mxPoint x="294" y="276" as="targetPoint" />
          </mxGeometry>
        </mxCell>
        <mxCell id="KxXHiPZeeXsI9hDlDG1h-2010" value="Приходить" style="rounded=1;whiteSpace=wrap;html=1;shadow=0;fillColor=#fcf6d7;fontFamily=Helvetica;fontSize=14;fontColor=#000000;align=center;spacing=5;fontStyle=0;arcSize=7;perimeterSpacing=2;" parent="1" vertex="1">
          <mxGeometry x="247" y="161.5" width="84" height="58" as="geometry" />
        </mxCell>
        <mxCell id="KxXHiPZeeXsI9hDlDG1h-2011" value="Обробляється" style="rounded=1;whiteSpace=wrap;html=1;shadow=0;fillColor=#fcf6d7;fontFamily=Helvetica;fontSize=14;fontColor=#000000;align=center;spacing=5;fontStyle=0;arcSize=7;perimeterSpacing=2;" parent="1" vertex="1">
          <mxGeometry x="346" y="160.5" width="110" height="59" as="geometry" />
        </mxCell>
        <mxCell id="KxXHiPZeeXsI9hDlDG1h-2012" value="Виходить" style="rounded=1;whiteSpace=wrap;html=1;shadow=0;fillColor=#fcf6d7;fontFamily=Helvetica;fontSize=14;fontColor=#000000;align=center;spacing=5;fontStyle=0;arcSize=7;perimeterSpacing=2;" parent="1" vertex="1">
          <mxGeometry x="466.5" y="158.5" width="84" height="60" as="geometry" />
        </mxCell>
        <mxCell id="KxXHiPZeeXsI9hDlDG1h-2013" value="" style="edgeStyle=none;rounded=1;jumpStyle=none;html=1;shadow=0;labelBackgroundColor=none;startArrow=none;startFill=0;jettySize=auto;orthogonalLoop=1;strokeColor=#12AAB5;strokeWidth=3;fontFamily=Helvetica;fontSize=14;fontColor=#FFFFFF;spacing=5;fontStyle=1;fillColor=#b0e3e6;exitX=0;exitY=0.25;exitDx=0;exitDy=0;entryX=0.5;entryY=1;entryDx=0;entryDy=0;" parent="1" source="KxXHiPZeeXsI9hDlDG1h-1827" target="KxXHiPZeeXsI9hDlDG1h-2010" edge="1">
          <mxGeometry relative="1" as="geometry">
            <mxPoint x="630.5" y="375" as="sourcePoint" />
            <mxPoint x="783.5" y="271.4999999999999" as="targetPoint" />
          </mxGeometry>
        </mxCell>
        <mxCell id="KxXHiPZeeXsI9hDlDG1h-2014" value="" style="edgeStyle=none;rounded=1;jumpStyle=none;html=1;shadow=0;labelBackgroundColor=none;startArrow=none;startFill=0;jettySize=auto;orthogonalLoop=1;strokeColor=#12AAB5;strokeWidth=3;fontFamily=Helvetica;fontSize=14;fontColor=#FFFFFF;spacing=5;fontStyle=1;fillColor=#b0e3e6;exitX=0.5;exitY=0;exitDx=0;exitDy=0;entryX=0.5;entryY=1;entryDx=0;entryDy=0;" parent="1" source="KxXHiPZeeXsI9hDlDG1h-1827" target="KxXHiPZeeXsI9hDlDG1h-2011" edge="1">
          <mxGeometry relative="1" as="geometry">
            <mxPoint x="630.5" y="345.5000000000001" as="sourcePoint" />
            <mxPoint x="865.1925086139822" y="282.4999999999999" as="targetPoint" />
          </mxGeometry>
        </mxCell>
        <mxCell id="KxXHiPZeeXsI9hDlDG1h-2015" value="Тепло" style="fontFamily=Helvetica;fontSize=14;" parent="1" vertex="1">
          <mxGeometry x="221" y="73" width="82" height="60" as="geometry" />
        </mxCell>
        <mxCell id="KxXHiPZeeXsI9hDlDG1h-2016" value="" style="edgeStyle=none;rounded=1;jumpStyle=none;html=1;shadow=0;labelBackgroundColor=none;startArrow=none;startFill=0;jettySize=auto;orthogonalLoop=1;strokeColor=#12AAB5;strokeWidth=3;fontFamily=Helvetica;fontSize=14;fontColor=#FFFFFF;spacing=5;fontStyle=1;fillColor=#b0e3e6;entryX=0.5;entryY=1;entryDx=0;entryDy=0;" parent="1" source="KxXHiPZeeXsI9hDlDG1h-2010" target="KxXHiPZeeXsI9hDlDG1h-2015" edge="1">
          <mxGeometry relative="1" as="geometry">
            <mxPoint x="752" y="317.5" as="sourcePoint" />
            <mxPoint x="743.5" y="265.5" as="targetPoint" />
          </mxGeometry>
        </mxCell>
        <mxCell id="KxXHiPZeeXsI9hDlDG1h-2017" value="Повітря" style="fontFamily=Helvetica;fontSize=14;" parent="1" vertex="1">
          <mxGeometry x="321" y="74" width="82" height="60" as="geometry" />
        </mxCell>
        <mxCell id="KxXHiPZeeXsI9hDlDG1h-2018" value="Теипература" style="fontFamily=Helvetica;fontSize=14;" parent="1" vertex="1">
          <mxGeometry x="421" y="74" width="82" height="60" as="geometry" />
        </mxCell>
        <mxCell id="KxXHiPZeeXsI9hDlDG1h-2019" value="" style="edgeStyle=none;rounded=1;jumpStyle=none;html=1;shadow=0;labelBackgroundColor=none;startArrow=none;startFill=0;jettySize=auto;orthogonalLoop=1;strokeColor=#12AAB5;strokeWidth=3;fontFamily=Helvetica;fontSize=14;fontColor=#FFFFFF;spacing=5;fontStyle=1;fillColor=#b0e3e6;" parent="1" source="KxXHiPZeeXsI9hDlDG1h-2012" target="KxXHiPZeeXsI9hDlDG1h-2018" edge="1">
          <mxGeometry relative="1" as="geometry">
            <mxPoint x="751.5" y="288.5" as="sourcePoint" />
            <mxPoint x="354.5" y="141.5" as="targetPoint" />
          </mxGeometry>
        </mxCell>
        <mxCell id="KxXHiPZeeXsI9hDlDG1h-2020" value="" style="edgeStyle=none;rounded=1;jumpStyle=none;html=1;shadow=0;labelBackgroundColor=none;startArrow=none;startFill=0;jettySize=auto;orthogonalLoop=1;strokeColor=#12AAB5;strokeWidth=3;fontFamily=Helvetica;fontSize=14;fontColor=#FFFFFF;spacing=5;fontStyle=1;fillColor=#b0e3e6;" parent="1" source="KxXHiPZeeXsI9hDlDG1h-2011" target="KxXHiPZeeXsI9hDlDG1h-2017" edge="1">
          <mxGeometry relative="1" as="geometry">
            <mxPoint x="923.5" y="298.5" as="sourcePoint" />
            <mxPoint x="948.5" y="298.5" as="targetPoint" />
          </mxGeometry>
        </mxCell>
        <mxCell id="KxXHiPZeeXsI9hDlDG1h-2021" value="" style="edgeStyle=none;rounded=1;jumpStyle=none;html=1;shadow=0;labelBackgroundColor=none;startArrow=none;startFill=0;jettySize=auto;orthogonalLoop=1;strokeColor=#12AAB5;strokeWidth=3;fontFamily=Helvetica;fontSize=14;fontColor=#FFFFFF;spacing=5;fontStyle=1;fillColor=#b0e3e6;exitX=0.75;exitY=0;exitDx=0;exitDy=0;entryX=0.5;entryY=1;entryDx=0;entryDy=0;" parent="1" source="KxXHiPZeeXsI9hDlDG1h-1827" target="KxXHiPZeeXsI9hDlDG1h-2012" edge="1">
          <mxGeometry relative="1" as="geometry">
            <mxPoint x="664.5" y="345.5000000000001" as="sourcePoint" />
            <mxPoint x="701.5" y="294.5" as="targetPoint" />
          </mxGeometry>
        </mxCell>
        <mxCell id="KxXHiPZeeXsI9hDlDG1h-2022" value="Приходить" style="rounded=1;whiteSpace=wrap;html=1;shadow=0;fillColor=#fcf6d7;fontFamily=Helvetica;fontSize=14;fontColor=#000000;align=center;spacing=5;fontStyle=0;arcSize=7;perimeterSpacing=2;" parent="1" vertex="1">
          <mxGeometry x="550" y="238" width="84" height="58" as="geometry" />
        </mxCell>
        <mxCell id="KxXHiPZeeXsI9hDlDG1h-2023" value="Обробляється" style="rounded=1;whiteSpace=wrap;html=1;shadow=0;fillColor=#fcf6d7;fontFamily=Helvetica;fontSize=14;fontColor=#000000;align=center;spacing=5;fontStyle=0;arcSize=7;perimeterSpacing=2;" parent="1" vertex="1">
          <mxGeometry x="603" y="157" width="110" height="59" as="geometry" />
        </mxCell>
        <mxCell id="KxXHiPZeeXsI9hDlDG1h-2024" value="Виходить" style="rounded=1;whiteSpace=wrap;html=1;shadow=0;fillColor=#fcf6d7;fontFamily=Helvetica;fontSize=14;fontColor=#000000;align=center;spacing=5;fontStyle=0;arcSize=7;perimeterSpacing=2;" parent="1" vertex="1">
          <mxGeometry x="729" y="158.5" width="84" height="60" as="geometry" />
        </mxCell>
        <mxCell id="KxXHiPZeeXsI9hDlDG1h-2025" value="" style="edgeStyle=none;rounded=1;jumpStyle=none;html=1;shadow=0;labelBackgroundColor=none;startArrow=none;startFill=0;jettySize=auto;orthogonalLoop=1;strokeColor=#12AAB5;strokeWidth=3;fontFamily=Helvetica;fontSize=14;fontColor=#FFFFFF;spacing=5;fontStyle=1;fillColor=#b0e3e6;exitX=0;exitY=0.5;exitDx=0;exitDy=0;entryX=1;entryY=0.5;entryDx=0;entryDy=0;" parent="1" source="KxXHiPZeeXsI9hDlDG1h-1825" target="KxXHiPZeeXsI9hDlDG1h-2022" edge="1">
          <mxGeometry relative="1" as="geometry">
            <mxPoint x="804" y="384.0000000000001" as="sourcePoint" />
            <mxPoint x="1113.5" y="274.4999999999999" as="targetPoint" />
          </mxGeometry>
        </mxCell>
        <mxCell id="KxXHiPZeeXsI9hDlDG1h-2026" value="" style="edgeStyle=none;rounded=1;jumpStyle=none;html=1;shadow=0;labelBackgroundColor=none;startArrow=none;startFill=0;jettySize=auto;orthogonalLoop=1;strokeColor=#12AAB5;strokeWidth=3;fontFamily=Helvetica;fontSize=14;fontColor=#FFFFFF;spacing=5;fontStyle=1;fillColor=#b0e3e6;entryX=0.5;entryY=1;entryDx=0;entryDy=0;" parent="1" source="KxXHiPZeeXsI9hDlDG1h-1825" target="KxXHiPZeeXsI9hDlDG1h-2023" edge="1">
          <mxGeometry relative="1" as="geometry">
            <mxPoint x="846" y="368.0000000000001" as="sourcePoint" />
            <mxPoint x="1195.1925086139822" y="285.4999999999999" as="targetPoint" />
          </mxGeometry>
        </mxCell>
        <mxCell id="KxXHiPZeeXsI9hDlDG1h-2027" value="Навколишнє&#xa;середовище" style="fontFamily=Helvetica;fontSize=14;" parent="1" vertex="1">
          <mxGeometry x="521" y="74" width="82" height="60" as="geometry" />
        </mxCell>
        <mxCell id="KxXHiPZeeXsI9hDlDG1h-2028" value="" style="edgeStyle=none;rounded=1;jumpStyle=none;html=1;shadow=0;labelBackgroundColor=none;startArrow=none;startFill=0;jettySize=auto;orthogonalLoop=1;strokeColor=#12AAB5;strokeWidth=3;fontFamily=Helvetica;fontSize=14;fontColor=#FFFFFF;spacing=5;fontStyle=1;fillColor=#b0e3e6;entryX=0.5;entryY=1;entryDx=0;entryDy=0;exitX=0.5;exitY=0;exitDx=0;exitDy=0;" parent="1" source="KxXHiPZeeXsI9hDlDG1h-2022" target="KxXHiPZeeXsI9hDlDG1h-2027" edge="1">
          <mxGeometry relative="1" as="geometry">
            <mxPoint x="587.091093117409" y="226.50000000000023" as="sourcePoint" />
            <mxPoint x="1073.5" y="268.5" as="targetPoint" />
          </mxGeometry>
        </mxCell>
        <mxCell id="KxXHiPZeeXsI9hDlDG1h-2029" value="На вулиці" style="fontFamily=Helvetica;fontSize=14;" parent="1" vertex="1">
          <mxGeometry x="621" y="74" width="82" height="60" as="geometry" />
        </mxCell>
        <mxCell id="KxXHiPZeeXsI9hDlDG1h-2030" value="Термометр" style="fontFamily=Helvetica;fontSize=14;" parent="1" vertex="1">
          <mxGeometry x="729" y="74" width="82" height="60" as="geometry" />
        </mxCell>
        <mxCell id="KxXHiPZeeXsI9hDlDG1h-2031" value="" style="edgeStyle=none;rounded=1;jumpStyle=none;html=1;shadow=0;labelBackgroundColor=none;startArrow=none;startFill=0;jettySize=auto;orthogonalLoop=1;strokeColor=#12AAB5;strokeWidth=3;fontFamily=Helvetica;fontSize=14;fontColor=#FFFFFF;spacing=5;fontStyle=1;fillColor=#b0e3e6;" parent="1" source="KxXHiPZeeXsI9hDlDG1h-2024" target="KxXHiPZeeXsI9hDlDG1h-2030" edge="1">
          <mxGeometry relative="1" as="geometry">
            <mxPoint x="1081.5" y="291.5" as="sourcePoint" />
            <mxPoint x="684.5" y="144.5" as="targetPoint" />
          </mxGeometry>
        </mxCell>
        <mxCell id="KxXHiPZeeXsI9hDlDG1h-2032" value="" style="edgeStyle=none;rounded=1;jumpStyle=none;html=1;shadow=0;labelBackgroundColor=none;startArrow=none;startFill=0;jettySize=auto;orthogonalLoop=1;strokeColor=#12AAB5;strokeWidth=3;fontFamily=Helvetica;fontSize=14;fontColor=#FFFFFF;spacing=5;fontStyle=1;fillColor=#b0e3e6;" parent="1" source="KxXHiPZeeXsI9hDlDG1h-2023" target="KxXHiPZeeXsI9hDlDG1h-2029" edge="1">
          <mxGeometry relative="1" as="geometry">
            <mxPoint x="1253.5" y="301.5" as="sourcePoint" />
            <mxPoint x="1278.5" y="301.5" as="targetPoint" />
          </mxGeometry>
        </mxCell>
        <mxCell id="KxXHiPZeeXsI9hDlDG1h-2033" value="" style="edgeStyle=none;rounded=1;jumpStyle=none;html=1;shadow=0;labelBackgroundColor=none;startArrow=none;startFill=0;jettySize=auto;orthogonalLoop=1;strokeColor=#12AAB5;strokeWidth=3;fontFamily=Helvetica;fontSize=14;fontColor=#FFFFFF;spacing=5;fontStyle=1;fillColor=#b0e3e6;exitX=0.5;exitY=0;exitDx=0;exitDy=0;entryX=0.5;entryY=1;entryDx=0;entryDy=0;" parent="1" source="KxXHiPZeeXsI9hDlDG1h-1825" target="KxXHiPZeeXsI9hDlDG1h-2024" edge="1">
          <mxGeometry relative="1" as="geometry">
            <mxPoint x="867" y="368.0000000000001" as="sourcePoint" />
            <mxPoint x="1031.5" y="297.5" as="targetPoint" />
          </mxGeometry>
        </mxCell>
        <mxCell id="KxXHiPZeeXsI9hDlDG1h-2069" value="Приходить" style="rounded=1;whiteSpace=wrap;html=1;shadow=0;fillColor=#fcf6d7;fontFamily=Helvetica;fontSize=14;fontColor=#000000;align=center;spacing=5;fontStyle=0;arcSize=7;perimeterSpacing=2;" parent="1" vertex="1">
          <mxGeometry x="845" y="160.5" width="84" height="58" as="geometry" />
        </mxCell>
        <mxCell id="KxXHiPZeeXsI9hDlDG1h-2070" value="Обробляється" style="rounded=1;whiteSpace=wrap;html=1;shadow=0;fillColor=#fcf6d7;fontFamily=Helvetica;fontSize=14;fontColor=#000000;align=center;spacing=5;fontStyle=0;arcSize=7;perimeterSpacing=2;" parent="1" vertex="1">
          <mxGeometry x="949" y="158.5" width="110" height="59" as="geometry" />
        </mxCell>
        <mxCell id="KxXHiPZeeXsI9hDlDG1h-2071" value="Виходить" style="rounded=1;whiteSpace=wrap;html=1;shadow=0;fillColor=#fcf6d7;fontFamily=Helvetica;fontSize=14;fontColor=#000000;align=center;spacing=5;fontStyle=0;arcSize=7;perimeterSpacing=2;" parent="1" vertex="1">
          <mxGeometry x="1024" y="238" width="84" height="60" as="geometry" />
        </mxCell>
        <mxCell id="KxXHiPZeeXsI9hDlDG1h-2072" value="" style="edgeStyle=none;rounded=1;jumpStyle=none;html=1;shadow=0;labelBackgroundColor=none;startArrow=none;startFill=0;jettySize=auto;orthogonalLoop=1;strokeColor=#12AAB5;strokeWidth=3;fontFamily=Helvetica;fontSize=14;fontColor=#FFFFFF;spacing=5;fontStyle=1;fillColor=#b0e3e6;entryX=0.5;entryY=1;entryDx=0;entryDy=0;exitX=0.25;exitY=0;exitDx=0;exitDy=0;" parent="1" source="KxXHiPZeeXsI9hDlDG1h-1823" target="KxXHiPZeeXsI9hDlDG1h-2069" edge="1">
          <mxGeometry relative="1" as="geometry">
            <mxPoint x="900" y="290" as="sourcePoint" />
            <mxPoint x="906.4320000000002" y="-96.31100000000015" as="targetPoint" />
          </mxGeometry>
        </mxCell>
        <mxCell id="KxXHiPZeeXsI9hDlDG1h-2073" value="" style="edgeStyle=none;rounded=1;jumpStyle=none;html=1;shadow=0;labelBackgroundColor=none;startArrow=none;startFill=0;jettySize=auto;orthogonalLoop=1;strokeColor=#12AAB5;strokeWidth=3;fontFamily=Helvetica;fontSize=14;fontColor=#FFFFFF;spacing=5;fontStyle=1;fillColor=#b0e3e6;exitX=0.75;exitY=0;exitDx=0;exitDy=0;entryX=0.5;entryY=1;entryDx=0;entryDy=0;" parent="1" source="KxXHiPZeeXsI9hDlDG1h-1823" target="KxXHiPZeeXsI9hDlDG1h-2070" edge="1">
          <mxGeometry relative="1" as="geometry">
            <mxPoint x="1358.5" y="45" as="sourcePoint" />
            <mxPoint x="1707.6925086139822" y="-37.500000000000114" as="targetPoint" />
          </mxGeometry>
        </mxCell>
        <mxCell id="KxXHiPZeeXsI9hDlDG1h-2074" value="Завжди" style="fontFamily=Helvetica;fontSize=14;" parent="1" vertex="1">
          <mxGeometry x="847" y="74" width="82" height="60" as="geometry" />
        </mxCell>
        <mxCell id="KxXHiPZeeXsI9hDlDG1h-2075" value="" style="edgeStyle=none;rounded=1;jumpStyle=none;html=1;shadow=0;labelBackgroundColor=none;startArrow=none;startFill=0;jettySize=auto;orthogonalLoop=1;strokeColor=#12AAB5;strokeWidth=3;fontFamily=Helvetica;fontSize=14;fontColor=#FFFFFF;spacing=5;fontStyle=1;fillColor=#b0e3e6;entryX=0.5;entryY=1;entryDx=0;entryDy=0;" parent="1" source="KxXHiPZeeXsI9hDlDG1h-2069" target="KxXHiPZeeXsI9hDlDG1h-2074" edge="1">
          <mxGeometry relative="1" as="geometry">
            <mxPoint x="1594.5" y="-2.5" as="sourcePoint" />
            <mxPoint x="1586" y="-54.5" as="targetPoint" />
          </mxGeometry>
        </mxCell>
        <mxCell id="KxXHiPZeeXsI9hDlDG1h-2076" value="Завжди" style="fontFamily=Helvetica;fontSize=14;" parent="1" vertex="1">
          <mxGeometry x="954" y="73" width="82" height="60" as="geometry" />
        </mxCell>
        <mxCell id="KxXHiPZeeXsI9hDlDG1h-2077" value="Завжди" style="fontFamily=Helvetica;fontSize=14;" parent="1" vertex="1">
          <mxGeometry x="1059" y="73" width="82" height="60" as="geometry" />
        </mxCell>
        <mxCell id="KxXHiPZeeXsI9hDlDG1h-2078" value="" style="edgeStyle=none;rounded=1;jumpStyle=none;html=1;shadow=0;labelBackgroundColor=none;startArrow=none;startFill=0;jettySize=auto;orthogonalLoop=1;strokeColor=#12AAB5;strokeWidth=3;fontFamily=Helvetica;fontSize=14;fontColor=#FFFFFF;spacing=5;fontStyle=1;fillColor=#b0e3e6;" parent="1" source="KxXHiPZeeXsI9hDlDG1h-2071" target="KxXHiPZeeXsI9hDlDG1h-2077" edge="1">
          <mxGeometry relative="1" as="geometry">
            <mxPoint x="1594" y="-31.5" as="sourcePoint" />
            <mxPoint x="1197" y="-178.5" as="targetPoint" />
          </mxGeometry>
        </mxCell>
        <mxCell id="KxXHiPZeeXsI9hDlDG1h-2079" value="" style="edgeStyle=none;rounded=1;jumpStyle=none;html=1;shadow=0;labelBackgroundColor=none;startArrow=none;startFill=0;jettySize=auto;orthogonalLoop=1;strokeColor=#12AAB5;strokeWidth=3;fontFamily=Helvetica;fontSize=14;fontColor=#FFFFFF;spacing=5;fontStyle=1;fillColor=#b0e3e6;" parent="1" source="KxXHiPZeeXsI9hDlDG1h-2070" target="KxXHiPZeeXsI9hDlDG1h-2076" edge="1">
          <mxGeometry relative="1" as="geometry">
            <mxPoint x="1766" y="-21.5" as="sourcePoint" />
            <mxPoint x="1791" y="-21.5" as="targetPoint" />
          </mxGeometry>
        </mxCell>
        <mxCell id="KxXHiPZeeXsI9hDlDG1h-2080" value="Приходить" style="rounded=1;whiteSpace=wrap;html=1;shadow=0;fillColor=#fcf6d7;fontFamily=Helvetica;fontSize=14;fontColor=#000000;align=center;spacing=5;fontStyle=0;arcSize=7;perimeterSpacing=2;" parent="1" vertex="1">
          <mxGeometry x="1108" y="157" width="84" height="58" as="geometry" />
        </mxCell>
        <mxCell id="KxXHiPZeeXsI9hDlDG1h-2081" value="Обробляється" style="rounded=1;whiteSpace=wrap;html=1;shadow=0;fillColor=#fcf6d7;fontFamily=Helvetica;fontSize=14;fontColor=#000000;align=center;spacing=5;fontStyle=0;arcSize=7;perimeterSpacing=2;" parent="1" vertex="1">
          <mxGeometry x="1207" y="161.5" width="110" height="59" as="geometry" />
        </mxCell>
        <mxCell id="KxXHiPZeeXsI9hDlDG1h-2082" value="Виходить" style="rounded=1;whiteSpace=wrap;html=1;shadow=0;fillColor=#fcf6d7;fontFamily=Helvetica;fontSize=14;fontColor=#000000;align=center;spacing=5;fontStyle=0;arcSize=7;perimeterSpacing=2;" parent="1" vertex="1">
          <mxGeometry x="1331" y="159.5" width="84" height="60" as="geometry" />
        </mxCell>
        <mxCell id="KxXHiPZeeXsI9hDlDG1h-2083" value="" style="edgeStyle=none;rounded=1;jumpStyle=none;html=1;shadow=0;labelBackgroundColor=none;startArrow=none;startFill=0;jettySize=auto;orthogonalLoop=1;strokeColor=#12AAB5;strokeWidth=3;fontFamily=Helvetica;fontSize=14;fontColor=#FFFFFF;spacing=5;fontStyle=1;fillColor=#b0e3e6;exitX=0.284;exitY=0.062;exitDx=0;exitDy=0;exitPerimeter=0;" parent="1" source="KxXHiPZeeXsI9hDlDG1h-1829" target="KxXHiPZeeXsI9hDlDG1h-2080" edge="1">
          <mxGeometry relative="1" as="geometry">
            <mxPoint x="1371" y="346.5" as="sourcePoint" />
            <mxPoint x="1768.5" y="275.9999999999999" as="targetPoint" />
          </mxGeometry>
        </mxCell>
        <mxCell id="KxXHiPZeeXsI9hDlDG1h-2084" value="" style="edgeStyle=none;rounded=1;jumpStyle=none;html=1;shadow=0;labelBackgroundColor=none;startArrow=none;startFill=0;jettySize=auto;orthogonalLoop=1;strokeColor=#12AAB5;strokeWidth=3;fontFamily=Helvetica;fontSize=14;fontColor=#FFFFFF;spacing=5;fontStyle=1;fillColor=#b0e3e6;entryX=0.5;entryY=1;entryDx=0;entryDy=0;exitX=0.689;exitY=0.062;exitDx=0;exitDy=0;exitPerimeter=0;" parent="1" source="KxXHiPZeeXsI9hDlDG1h-1829" target="KxXHiPZeeXsI9hDlDG1h-2081" edge="1">
          <mxGeometry relative="1" as="geometry">
            <mxPoint x="1387.803149606299" y="314.5" as="sourcePoint" />
            <mxPoint x="1850.1925086139822" y="286.9999999999999" as="targetPoint" />
          </mxGeometry>
        </mxCell>
        <mxCell id="KxXHiPZeeXsI9hDlDG1h-2085" value="Промені&#xa;сонця" style="fontFamily=Helvetica;fontSize=14;" parent="1" vertex="1">
          <mxGeometry x="1161" y="73" width="82" height="60" as="geometry" />
        </mxCell>
        <mxCell id="KxXHiPZeeXsI9hDlDG1h-2086" value="" style="edgeStyle=none;rounded=1;jumpStyle=none;html=1;shadow=0;labelBackgroundColor=none;startArrow=none;startFill=0;jettySize=auto;orthogonalLoop=1;strokeColor=#12AAB5;strokeWidth=3;fontFamily=Helvetica;fontSize=14;fontColor=#FFFFFF;spacing=5;fontStyle=1;fillColor=#b0e3e6;entryX=0.5;entryY=1;entryDx=0;entryDy=0;exitX=0.88;exitY=0.026;exitDx=0;exitDy=0;exitPerimeter=0;" parent="1" source="KxXHiPZeeXsI9hDlDG1h-2080" target="KxXHiPZeeXsI9hDlDG1h-2085" edge="1">
          <mxGeometry relative="1" as="geometry">
            <mxPoint x="1242.091093117409" y="228.00000000000023" as="sourcePoint" />
            <mxPoint x="1728.5" y="270" as="targetPoint" />
          </mxGeometry>
        </mxCell>
        <mxCell id="KxXHiPZeeXsI9hDlDG1h-2087" value="Вимірювання" style="fontFamily=Helvetica;fontSize=14;" parent="1" vertex="1">
          <mxGeometry x="1258" y="75.5" width="82" height="60" as="geometry" />
        </mxCell>
        <mxCell id="KxXHiPZeeXsI9hDlDG1h-2088" value="Цифрами" style="fontFamily=Helvetica;fontSize=14;" parent="1" vertex="1">
          <mxGeometry x="1360" y="73" width="82" height="60" as="geometry" />
        </mxCell>
        <mxCell id="KxXHiPZeeXsI9hDlDG1h-2089" value="" style="edgeStyle=none;rounded=1;jumpStyle=none;html=1;shadow=0;labelBackgroundColor=none;startArrow=none;startFill=0;jettySize=auto;orthogonalLoop=1;strokeColor=#12AAB5;strokeWidth=3;fontFamily=Helvetica;fontSize=14;fontColor=#FFFFFF;spacing=5;fontStyle=1;fillColor=#b0e3e6;" parent="1" source="KxXHiPZeeXsI9hDlDG1h-2082" target="KxXHiPZeeXsI9hDlDG1h-2088" edge="1">
          <mxGeometry relative="1" as="geometry">
            <mxPoint x="1736.5" y="293" as="sourcePoint" />
            <mxPoint x="1339.5" y="146" as="targetPoint" />
          </mxGeometry>
        </mxCell>
        <mxCell id="KxXHiPZeeXsI9hDlDG1h-2090" value="" style="edgeStyle=none;rounded=1;jumpStyle=none;html=1;shadow=0;labelBackgroundColor=none;startArrow=none;startFill=0;jettySize=auto;orthogonalLoop=1;strokeColor=#12AAB5;strokeWidth=3;fontFamily=Helvetica;fontSize=14;fontColor=#FFFFFF;spacing=5;fontStyle=1;fillColor=#b0e3e6;" parent="1" source="KxXHiPZeeXsI9hDlDG1h-2081" target="KxXHiPZeeXsI9hDlDG1h-2087" edge="1">
          <mxGeometry relative="1" as="geometry">
            <mxPoint x="1908.5" y="303" as="sourcePoint" />
            <mxPoint x="1933.5" y="303" as="targetPoint" />
          </mxGeometry>
        </mxCell>
        <mxCell id="KxXHiPZeeXsI9hDlDG1h-2091" value="" style="edgeStyle=none;rounded=1;jumpStyle=none;html=1;shadow=0;labelBackgroundColor=none;startArrow=none;startFill=0;jettySize=auto;orthogonalLoop=1;strokeColor=#12AAB5;strokeWidth=3;fontFamily=Helvetica;fontSize=14;fontColor=#FFFFFF;spacing=5;fontStyle=1;fillColor=#b0e3e6;entryX=0.5;entryY=1;entryDx=0;entryDy=0;" parent="1" source="KxXHiPZeeXsI9hDlDG1h-1829" target="KxXHiPZeeXsI9hDlDG1h-2082" edge="1">
          <mxGeometry relative="1" as="geometry">
            <mxPoint x="1413" y="314.5" as="sourcePoint" />
            <mxPoint x="1686.5" y="299" as="targetPoint" />
          </mxGeometry>
        </mxCell>
        <mxCell id="KxXHiPZeeXsI9hDlDG1h-2092" value="" style="edgeStyle=none;rounded=1;jumpStyle=none;html=1;shadow=0;labelBackgroundColor=none;startArrow=none;startFill=0;jettySize=auto;orthogonalLoop=1;strokeColor=#12AAB5;strokeWidth=3;fontFamily=Helvetica;fontSize=14;fontColor=#FFFFFF;spacing=5;fontStyle=1;fillColor=#b0e3e6;exitX=0.972;exitY=0.388;exitDx=0;exitDy=0;entryX=0;entryY=0.75;entryDx=0;entryDy=0;exitPerimeter=0;" parent="1" source="KxXHiPZeeXsI9hDlDG1h-1823" target="KxXHiPZeeXsI9hDlDG1h-2071" edge="1">
          <mxGeometry relative="1" as="geometry">
            <mxPoint x="941.2500000000005" y="322.9999999999998" as="sourcePoint" />
            <mxPoint x="1014" y="229.5" as="targetPoint" />
          </mxGeometry>
        </mxCell>
      </root>
    </mxGraphModel>
  </diagram>
</mxfile>
